<svg xmlns="http://www.w3.org/2000/svg" viewBox="0 0 564.91 383.01"><defs><style>.cls-1,.cls-3,.cls-9{fill:#232323;}.cls-1,.cls-2{stroke:#259aa1;}.cls-1,.cls-2,.cls-9{stroke-miterlimit:10;stroke-width:9.77px;}.cls-2{fill:#259aa1;}.cls-4{fill:#d61587;}.cls-5{fill:#2170a2;}.cls-6{fill:#ed1c4f;}.cls-7{fill:#fcb54a;}.cls-8{fill:#5ac09d;}.cls-9{stroke:#c0e0b3;}.cls-10{fill:#c0e0b3;}</style></defs><g id="Layer_4" data-name="Layer 4"><g id="Game_Dev" data-name="Game Dev"><path class="cls-1" d="M486.05,50.56V274.31A34.65,34.65,0,0,1,451.4,309H40.72A34.65,34.65,0,0,1,6.07,274.31V50.56Z"/><path class="cls-2" d="M486.05,41.3v9.26H6.07V41.3A34.64,34.64,0,0,1,40.72,6.66H451.4A34.64,34.64,0,0,1,486.05,41.3Z"/><circle class="cls-3" cx="464.87" cy="28.61" r="6"/><circle class="cls-3" cx="440.92" cy="28.61" r="6"/><circle class="cls-3" cx="416.97" cy="28.61" r="6"/><path class="cls-4" d="M49.47,92.35H86.4c7.54,0,7.55-11.73,0-11.73H49.47c-7.54,0-7.55,11.73,0,11.73Z"/><path class="cls-5" d="M105.36,92.35h77.33c7.55,0,7.56-11.73,0-11.73H105.36c-7.55,0-7.56,11.73,0,11.73Z"/><path class="cls-6" d="M62.45,112.3h140.2c7.55,0,7.56-11.72,0-11.72H62.45c-7.55,0-7.56,11.72,0,11.72Z"/><path class="cls-7" d="M86.4,132.26H192.67c7.55,0,7.56-11.72,0-11.72H86.4c-7.55,0-7.56,11.72,0,11.72Z"/><path class="cls-8" d="M62.45,152.22H168.72c7.55,0,7.56-11.73,0-11.73H62.45c-7.55,0-7.56,11.73,0,11.73Z"/><path class="cls-7" d="M86.4,172.18H192.67c7.55,0,7.56-11.73,0-11.73H86.4c-7.55,0-7.56,11.73,0,11.73Z"/><path class="cls-4" d="M49.47,198.62H86.4c7.54,0,7.55-11.72,0-11.72H49.47c-7.54,0-7.55,11.72,0,11.72Z"/><path class="cls-5" d="M105.36,198.62h57.87c7.55,0,7.56-11.72,0-11.72H105.36c-7.55,0-7.56,11.72,0,11.72Z"/><path class="cls-6" d="M62.45,218.58H259.53c7.55,0,7.56-11.73,0-11.73H62.45c-7.55,0-7.56,11.73,0,11.73Z"/><path class="cls-7" d="M76.42,238.54H213.13c7.54,0,7.56-11.73,0-11.73H76.42c-7.55,0-7.56,11.73,0,11.73Z"/><path class="cls-7" d="M86.4,261H192.67c7.55,0,7.56-11.73,0-11.73H86.4c-7.55,0-7.56,11.73,0,11.73Z"/><path class="cls-9" d="M559.16,238.86v75.56c0,53.52-62.9,82.25-103.36,47.22L443.63,351.1a62.47,62.47,0,0,0-40.89-15.25h0a62.47,62.47,0,0,0-40.89,15.25l-12.17,10.54c-40.45,35-103.36,6.3-103.36-47.22V238.86a62.47,62.47,0,0,1,62.47-62.47h187.9A62.47,62.47,0,0,1,559.16,238.86Z"/><rect class="cls-10" x="286.99" y="231.84" width="69.35" height="22.12" rx="11.06" transform="translate(78.76 564.57) rotate(-90)"/><rect class="cls-10" x="286.99" y="231.84" width="69.35" height="22.12" rx="11.06"/><circle class="cls-10" cx="492.05" cy="218.78" r="11.47"/><circle class="cls-10" cx="492.05" cy="267.03" r="11.47"/><circle class="cls-10" cx="364.82" cy="296.54" r="18.96"/><circle class="cls-10" cx="440.66" cy="296.54" r="18.96"/><circle class="cls-10" cx="516.18" cy="242.9" r="11.47"/><circle class="cls-10" cx="467.93" cy="242.9" r="11.47"/></g></g></svg>