<svg xmlns="http://www.w3.org/2000/svg" viewBox="0 0 569.04 387.2"><defs><style>.cls-1,.cls-3{fill:#232323;}.cls-1,.cls-2{stroke:#259aa1;stroke-width:9.77px;}.cls-1,.cls-10,.cls-2{stroke-miterlimit:10;}.cls-2{fill:#259aa1;}.cls-4{fill:#d61587;}.cls-5{fill:#2170a2;}.cls-6{fill:#ed1c4f;}.cls-7{fill:#fcb54a;}.cls-8{fill:#5ac09d;}.cls-9{fill:#c0e0b3;}.cls-10{fill:none;stroke:#c0e0b3;stroke-width:10px;}.cls-11{fill:#f1f1f9;}</style></defs><g id="Layer_4" data-name="Layer 4"><g id="Computer_Graphics" data-name="Computer Graphics"><path class="cls-1" d="M486.14,50.56V274.31A34.65,34.65,0,0,1,451.49,309H40.81A34.65,34.65,0,0,1,6.16,274.31V50.56Z"/><path class="cls-2" d="M486.14,41.3v9.26H6.16V41.3A34.64,34.64,0,0,1,40.81,6.66H451.49A34.64,34.64,0,0,1,486.14,41.3Z"/><circle class="cls-3" cx="464.96" cy="28.61" r="6"/><circle class="cls-3" cx="441.01" cy="28.61" r="6"/><circle class="cls-3" cx="417.06" cy="28.61" r="6"/><path class="cls-4" d="M49.56,92.35H86.49c7.54,0,7.55-11.73,0-11.73H49.56c-7.54,0-7.55,11.73,0,11.73Z"/><path class="cls-5" d="M105.45,92.35h77.33c7.55,0,7.56-11.73,0-11.73H105.45c-7.55,0-7.56,11.73,0,11.73Z"/><path class="cls-6" d="M62.54,112.3h140.2c7.54,0,7.56-11.72,0-11.72H62.54c-7.55,0-7.56,11.72,0,11.72Z"/><path class="cls-7" d="M86.49,132.26H192.76c7.55,0,7.56-11.72,0-11.72H86.49c-7.55,0-7.56,11.72,0,11.72Z"/><path class="cls-8" d="M62.54,152.22H168.81c7.55,0,7.56-11.73,0-11.73H62.54c-7.55,0-7.56,11.73,0,11.73Z"/><path class="cls-7" d="M86.49,172.18H192.76c7.55,0,7.56-11.73,0-11.73H86.49c-7.55,0-7.56,11.73,0,11.73Z"/><path class="cls-4" d="M49.56,198.62H86.49c7.54,0,7.55-11.72,0-11.72H49.56c-7.54,0-7.55,11.72,0,11.72Z"/><path class="cls-5" d="M105.45,198.62h57.87c7.55,0,7.56-11.72,0-11.72H105.45c-7.55,0-7.56,11.72,0,11.72Z"/><path class="cls-6" d="M62.54,218.58H259.62c7.54,0,7.56-11.73,0-11.73H62.54c-7.55,0-7.56,11.73,0,11.73Z"/><path class="cls-7" d="M76.51,238.54H213.22c7.54,0,7.56-11.73,0-11.73H76.51c-7.55,0-7.56,11.73,0,11.73Z"/><path class="cls-7" d="M86.49,261H192.76c7.55,0,7.56-11.73,0-11.73H86.49c-7.55,0-7.56,11.73,0,11.73Z"/><g id="Window"><path class="cls-3" d="M564,117.74v229a35.47,35.47,0,0,1-35.46,35.46H291.18a35.46,35.46,0,0,1-35.46-35.46v-229Z"/><path class="cls-9" d="M564,108.27v9.47H255.72v-9.47a35.45,35.45,0,0,1,35.46-35.46h237.4A35.46,35.46,0,0,1,564,108.27Z"/><path class="cls-10" d="M564,108.27V346.74a35.47,35.47,0,0,1-35.46,35.46H291.18a35.46,35.46,0,0,1-35.46-35.46V108.27a35.45,35.45,0,0,1,35.46-35.46h237.4A35.46,35.46,0,0,1,564,108.27Z"/><circle class="cls-3" cx="530.08" cy="95.27" r="6"/><circle class="cls-3" cx="505.57" cy="95.27" r="6"/><circle class="cls-3" cx="481.06" cy="95.27" r="6"/></g><path class="cls-11" d="M407,178.25,343.76,287.8a14.39,14.39,0,0,0,12.47,21.59h126.5a14.39,14.39,0,0,0,12.46-21.59L431.94,178.25A14.39,14.39,0,0,0,407,178.25Z"/><circle class="cls-8" cx="419.48" cy="171.23" r="10.55"/><circle class="cls-5" cx="495.01" cy="301.95" r="10.55"/><circle class="cls-6" cx="343.93" cy="301.95" r="10.55"/></g></g></svg>