<svg xmlns="http://www.w3.org/2000/svg" viewBox="0 0 569.04 358.4"><defs><style>.cls-1,.cls-3{fill:#232323;}.cls-1,.cls-2{stroke:#259aa1;stroke-miterlimit:10;stroke-width:9.43px;}.cls-2,.cls-5{fill:#259aa1;}.cls-4{fill:#ed1c4f;}.cls-6{fill:#d61587;}.cls-7{fill:#9fd5ba;}.cls-8{fill:#f89626;}.cls-9{fill:#f04d4a;}.cls-10{fill:#c0e0b3;}</style></defs><g id="Layer_4" data-name="Layer 4"><g id="Motion_Design" data-name="Motion Design"><g id="Window"><path class="cls-1" d="M557.36,56.38v256a39.65,39.65,0,0,1-39.64,39.65H47.79A39.65,39.65,0,0,1,8.14,312.41v-256Z"/><path class="cls-2" d="M557.36,45.79V56.38H8.14V45.79A39.64,39.64,0,0,1,47.79,6.15H517.72A39.64,39.64,0,0,1,557.36,45.79Z"/><circle class="cls-3" cx="533.16" cy="31.26" r="6"/><circle class="cls-3" cx="505.76" cy="31.26" r="6"/><circle class="cls-3" cx="478.35" cy="31.26" r="6"/><path class="cls-4" d="M58.89,273.08h43.92c8.64,0,8.65-13.42,0-13.42H58.89c-8.63,0-8.64,13.42,0,13.42Z"/><path class="cls-5" d="M58.89,295.29h43.92c7.72,0,7.74-12,0-12H58.89c-7.72,0-7.73,12,0,12Z"/><path class="cls-6" d="M58.89,318.2h43.92c7.72,0,7.74-12,0-12H58.89c-7.72,0-7.73,12,0,12Z"/><path class="cls-7" d="M126.7,272.37H464.14c15.59,0,31.36.69,46.93,0h.67c7.72,0,7.74-12,0-12H174.3c-15.59,0-31.36-.69-46.94,0h-.66c-7.72,0-7.74,12,0,12Z"/><path class="cls-7" d="M126.7,295.29H464.14c15.59,0,31.36.69,46.93,0,.23,0,.45,0,.67,0,7.72,0,7.74-12,0-12H174.3c-15.59,0-31.36-.7-46.94,0h-.66c-7.72,0-7.74,12,0,12Z"/><path class="cls-7" d="M126.7,318.2H464.14c15.59,0,31.36.69,46.93,0h.67c7.72,0,7.74-12,0-12H174.3c-15.59,0-31.36-.69-46.94,0h-.66c-7.72,0-7.74,12,0,12Z"/><path class="cls-8" d="M158.22,247.4v84.76c0,3.86,6,3.87,6,0V247.4c0-3.86-6-3.86-6,0Z"/><circle class="cls-9" cx="161.22" cy="247.4" r="8.82"/></g><circle class="cls-9" cx="372.71" cy="126.86" r="38.11"/><path class="cls-10" d="M302.45,162.67a85.81,85.81,0,0,1,29-26.76c2.8-1.59.29-5.91-2.52-4.32a91.21,91.21,0,0,0-30.78,28.56c-1.8,2.67,2.53,5.18,4.31,2.52Z"/><path class="cls-10" d="M338.94,154.69a64.41,64.41,0,0,0-30.79,55c0,3.22,5,3.22,5,0a60,60,0,0,1,17.94-42.57A60.61,60.61,0,0,1,341.46,159c2.73-1.7.22-6-2.52-4.32Z"/><path class="cls-10" d="M193,94.5a115.09,115.09,0,0,1,50.91,11.87,115.93,115.93,0,0,1,54.26,56.31,2.52,2.52,0,0,0,3.42.9,2.57,2.57,0,0,0,.89-3.43A120.09,120.09,0,0,0,193,89.5c-3.22,0-3.23,5,0,5Z"/><path class="cls-10" d="M288.16,209.69a95.36,95.36,0,0,0-17.56-55,96.42,96.42,0,0,0-45-34.39A95.06,95.06,0,0,0,193,114.5c-3.22,0-3.23,5,0,5a90.14,90.14,0,0,1,90.19,90.19c0,3.22,5,3.23,5,0Z"/></g></g></svg>