<svg xmlns="http://www.w3.org/2000/svg" viewBox="0 0 569.04 358.4"><defs><style>.cls-1{fill:#232323;}.cls-2{fill:#259aa1;}.cls-3{fill:#ed1c4f;}.cls-4{fill:#fcb54a;}.cls-5{fill:#2170a2;}.cls-6{fill:#c0e0b3;}.cls-7{fill:#5e429a;}.cls-8{fill:#f04d4a;}</style></defs><g id="Layer_4" data-name="Layer 4"><g id="Motion_Design" data-name="Motion Design"><g id="Window"><path class="cls-1" d="M569,52.05V317.32A41.09,41.09,0,0,1,528,358.4H41.08A41.08,41.08,0,0,1,0,317.32V52.05Z"/><path class="cls-2" d="M569,41.08v11H0v-11A41.06,41.06,0,0,1,41.08,0H528A41.08,41.08,0,0,1,569,41.08Z"/><circle class="cls-1" cx="529.7" cy="26.02" r="9.76"/><circle class="cls-1" cx="501.31" cy="26.02" r="9.76"/><circle class="cls-1" cx="472.91" cy="26.02" r="9.76"/><path class="cls-3" d="M50.75,276.56H96.26c8.94,0,8.95-13.9,0-13.9H50.75c-8.94,0-9,13.9,0,13.9Z"/><path class="cls-4" d="M50.75,299.36H96.26c7.72,0,7.73-12,0-12H50.75c-7.72,0-7.73,12,0,12Z"/><path class="cls-5" d="M50.75,323.1H96.26c7.72,0,7.73-12,0-12H50.75c-7.72,0-7.73,12,0,12Z"/><path class="cls-6" d="M121,275.61H470.7c16.13,0,32.43.7,48.55,0h.69c7.72,0,7.73-12,0-12H170.24c-16.13,0-32.43-.69-48.55,0H121c-7.72,0-7.73,12,0,12Z"/><path class="cls-6" d="M121,299.36H470.7c16.13,0,32.43.69,48.55,0h.69c7.72,0,7.73-12,0-12H170.24c-16.13,0-32.43-.7-48.55,0H121c-7.72,0-7.73,12,0,12Z"/><path class="cls-6" d="M121,323.1H470.7c16.13,0,32.43.7,48.55,0,.23,0,.46,0,.69,0,7.72,0,7.73-12,0-12H170.24c-16.13,0-32.43-.69-48.55,0H121c-7.72,0-7.73,12,0,12Z"/><path class="cls-7" d="M150.77,250v87.81c0,7.72,12,7.74,12,0V250c0-7.73-12-7.74-12,0Z"/><circle class="cls-7" cx="156.77" cy="249.97" r="13.02"/></g><circle class="cls-8" cx="423.67" cy="163.25" r="39.49"/><path class="cls-6" d="M112.89,80.1A140.45,140.45,0,0,1,173.5,93.8a140.89,140.89,0,0,1,66,65.86,2.52,2.52,0,0,0,3.42.89,2.55,2.55,0,0,0,.9-3.42,145.25,145.25,0,0,0-130.93-82c-3.21,0-3.22,5,0,5Z"/><path class="cls-6" d="M112.89,108.46A111.95,111.95,0,0,1,224.89,216c.06,1.53.09,3.05.09,4.58,0,3.21,5,3.22,5,0a117.75,117.75,0,0,0-5.68-36.12,116.62,116.62,0,0,0-15.85-31.54A118.68,118.68,0,0,0,184,127.53a116.39,116.39,0,0,0-66.51-24c-1.53-.06-3-.09-4.58-.09-3.21,0-3.22,5,0,5Z"/><path class="cls-6" d="M243.82,159.66a65,65,0,0,1,18.12-22.59,77.89,77.89,0,0,1,24.8-12.92,105.08,105.08,0,0,1,57.62-1.22,86.18,86.18,0,0,1,28.09,12.54,2.53,2.53,0,0,0,3.42-.89,2.56,2.56,0,0,0-.9-3.42A89.72,89.72,0,0,0,349,119a112.16,112.16,0,0,0-29.92-4.47,107.67,107.67,0,0,0-30.46,3.8,85.16,85.16,0,0,0-27.11,12.77,70.3,70.3,0,0,0-20.28,22.61c-.62,1.11-1.21,2.25-1.77,3.4a2.57,2.57,0,0,0,.9,3.42,2.52,2.52,0,0,0,3.42-.9Z"/><path class="cls-6" d="M258.34,220.55a64.23,64.23,0,0,1,7.36-30.69,58,58,0,0,1,19-20.5A69,69,0,0,1,311.17,159a62.57,62.57,0,0,1,6.82-.88c2.43-.2,4.87-.28,7.31-.26a73.4,73.4,0,0,1,14.28,1.45,70,70,0,0,1,26.62,11.1c1,.7,2,1.42,3,2.17a2.51,2.51,0,0,0,3.42-.89,2.57,2.57,0,0,0-.9-3.42,73.83,73.83,0,0,0-27.59-13.07,82.65,82.65,0,0,0-30.58-1.59A76.4,76.4,0,0,0,285,163.29a64,64,0,0,0-21.78,21,66.75,66.75,0,0,0-9.71,31.66c-.09,1.54-.13,3.08-.14,4.63,0,3.21,5,3.22,5,0Z"/></g></g></svg>