<svg xmlns="http://www.w3.org/2000/svg" viewBox="0 0 569.04 387.2"><defs><style>.cls-1,.cls-3{fill:#232323;}.cls-1,.cls-2{stroke:#259aa1;stroke-width:9.77px;}.cls-1,.cls-11,.cls-2{stroke-miterlimit:10;}.cls-2{fill:#259aa1;}.cls-4{fill:#d61587;}.cls-5{fill:#2170a2;}.cls-6{fill:#ed1c4f;}.cls-7{fill:#fcb54a;}.cls-8{fill:#5ac09d;}.cls-9{fill:#f1f1f9;}.cls-10{fill:#c0e0b3;}.cls-11{fill:none;stroke:#c0e0b3;stroke-width:10px;}</style></defs><g id="Layer_4" data-name="Layer 4"><g id="Web"><path class="cls-1" d="M486,50.56V274.31A34.66,34.66,0,0,1,451.31,309H40.62A34.64,34.64,0,0,1,6,274.31V50.56Z"/><path class="cls-2" d="M486,41.3v9.26H6V41.3A34.63,34.63,0,0,1,40.62,6.66H451.31A34.64,34.64,0,0,1,486,41.3Z"/><circle class="cls-3" cx="464.78" cy="28.61" r="6"/><circle class="cls-3" cx="440.83" cy="28.61" r="6"/><circle class="cls-3" cx="416.88" cy="28.61" r="6"/><path class="cls-4" d="M49.38,92.35H86.3c7.55,0,7.56-11.73,0-11.73H49.38c-7.54,0-7.56,11.73,0,11.73Z"/><path class="cls-5" d="M105.26,92.35H182.6c7.54,0,7.56-11.73,0-11.73H105.26c-7.54,0-7.55,11.73,0,11.73Z"/><path class="cls-6" d="M62.35,112.3H202.56c7.54,0,7.55-11.72,0-11.72H62.35c-7.54,0-7.55,11.72,0,11.72Z"/><path class="cls-7" d="M86.3,132.26H192.58c7.54,0,7.56-11.72,0-11.72H86.3c-7.54,0-7.55,11.72,0,11.72Z"/><path class="cls-8" d="M62.35,152.22H168.63c7.54,0,7.56-11.73,0-11.73H62.35c-7.54,0-7.55,11.73,0,11.73Z"/><path class="cls-7" d="M86.3,172.18H192.58c7.54,0,7.56-11.73,0-11.73H86.3c-7.54,0-7.55,11.73,0,11.73Z"/><path class="cls-4" d="M49.38,198.62H86.3c7.55,0,7.56-11.72,0-11.72H49.38c-7.54,0-7.56,11.72,0,11.72Z"/><path class="cls-5" d="M105.26,198.62h57.88c7.54,0,7.56-11.72,0-11.72H105.26c-7.54,0-7.55,11.72,0,11.72Z"/><path class="cls-6" d="M62.35,218.58H259.44c7.54,0,7.55-11.73,0-11.73H62.35c-7.54,0-7.55,11.73,0,11.73Z"/><path class="cls-7" d="M76.32,238.54H213c7.55,0,7.56-11.73,0-11.73H76.32c-7.54,0-7.55,11.73,0,11.73Z"/><path class="cls-7" d="M86.3,261H192.58c7.54,0,7.56-11.73,0-11.73H86.3c-7.54,0-7.55,11.73,0,11.73Z"/><g id="Window"><path class="cls-3" d="M564,117.74v229a35.47,35.47,0,0,1-35.46,35.46H291.18a35.46,35.46,0,0,1-35.46-35.46v-229Z"/><rect class="cls-9" x="255.72" y="115.4" width="308.32" height="48"/><path class="cls-10" d="M564,108.27v9.47H255.72v-9.47a35.45,35.45,0,0,1,35.46-35.46h237.4A35.46,35.46,0,0,1,564,108.27Z"/><path class="cls-11" d="M564,108.27V346.74a35.47,35.47,0,0,1-35.46,35.46H291.18a35.46,35.46,0,0,1-35.46-35.46V108.27a35.45,35.45,0,0,1,35.46-35.46h237.4A35.46,35.46,0,0,1,564,108.27Z"/><circle class="cls-3" cx="530.08" cy="95.27" r="6"/><circle class="cls-3" cx="505.57" cy="95.27" r="6"/><circle class="cls-3" cx="481.06" cy="95.27" r="6"/><path class="cls-3" d="M536.94,136.18H509c-5.79,0-5.8,9,0,9h28c5.79,0,5.8-9,0-9Z"/><path class="cls-3" d="M492.51,136.18h-28c-5.79,0-5.8,9,0,9h28c5.79,0,5.8-9,0-9Z"/><path class="cls-3" d="M449.23,136.18h-28c-5.79,0-5.8,9,0,9h28c5.8,0,5.8-9,0-9Z"/><path class="cls-3" d="M407,136.18H379c-5.79,0-5.8,9,0,9h28c5.79,0,5.8-9,0-9Z"/></g><circle class="cls-3" cx="293.1" cy="140.68" r="12.26"/><path class="cls-6" d="M299.23,261.74H442.72c9.42,0,18.44-8.28,18-18s-7.91-18-18-18H299.23c-9.41,0-18.43,8.28-18,18s7.91,18,18,18Z"/><path class="cls-6" d="M293.1,215.27H401.87c7.72,0,7.73-12,0-12H293.1c-7.72,0-7.73,12,0,12Z"/><path class="cls-6" d="M293.1,284.21H401.87c7.72,0,7.73-12,0-12H293.1c-7.72,0-7.73,12,0,12Z"/><path class="cls-9" d="M382.31,369.57h55.14c7.72,0,7.73-12,0-12H382.31c-7.72,0-7.74,12,0,12Z"/></g></g></svg>