<svg xmlns="http://www.w3.org/2000/svg" viewBox="0 0 924.32 462.93"><defs><style>.cls-1{fill:none;stroke:#232323;stroke-miterlimit:10;stroke-width:1.58px;}</style></defs><g id="Layer_2" data-name="Layer 2"><g id="Layer_30" data-name="Layer 30"><path class="cls-1" d="M22.27,440h0a73.53,73.53,0,0,1,0-103.87L335.43,22.31a73.24,73.24,0,0,1,103.66,0h0a73.54,73.54,0,0,1,0,103.88L125.93,440A73.22,73.22,0,0,1,22.27,440Z"/><path class="cls-1" d="M694.63,230h0a73.54,73.54,0,0,1,0-103.88L798.3,22.29a73.22,73.22,0,0,1,103.66,0h0a73.53,73.53,0,0,1,0,103.87L798.3,230A73.25,73.25,0,0,1,694.63,230Z"/><rect class="cls-1" x="496.04" y="0.81" width="146.6" height="461.14" rx="73.3"/><ellipse class="cls-1" cx="387.63" cy="388.5" rx="73.3" ry="73.45"/><ellipse class="cls-1" cx="850.23" cy="388.69" rx="73.3" ry="73.45"/></g></g></svg>