<svg id="eYMAfNJFQ9a1" xmlns="http://www.w3.org/2000/svg" xmlns:xlink="http://www.w3.org/1999/xlink" viewBox="0 0 2432.08 1646.93" shape-rendering="geometricPrecision" text-rendering="geometricPrecision">
<style><![CDATA[
#eYMAfNJFQ9a2_to {animation: eYMAfNJFQ9a2_to__to 3000ms linear infinite normal forwards}@keyframes eYMAfNJFQ9a2_to__to { 0% {transform: translate(220.300293px,1311.109941px)} 100% {transform: translate(2211.880493px,376.604394px)}}
]]></style>
<g id="eYMAfNJFQ9a2_to" transform="translate(220.300293,1311.109941)"><g transform="translate(-220.300293,-1311.109941)"><g transform="translate(-.049769 0.001312)"><g><path d="M9.26,986.52C6.17,906.38,17,821.32,64.53,754.36c21.16-29.8,49.14-54.67,82.18-70.51c29.57-14.17,62.25-20.58,94.8-22.62c73.66-4.62,147.6,9.13,220.5,17.6c85.14,9.89,171.22,14.59,256.13,0c84.28-14.49,166.34-47.47,235-98.9c54.45-40.81,98.6-92.5,137.66-147.86c38.84-55,73.34-113,113.8-167c44.56-59.35,96.94-112.4,159.49-152.8C1528.67,6,1732.92,-9.9,1921.64,25.74c17.81,3.36,35.52,7.17,53.16,11.32c5.48,1.29,7.82-7.14,2.33-8.43-183.89-43.31-381.22-43.26-554.13,40.56-71.14,34.48-134,82.92-186.16,142.24-45.34,51.56-82.23,109.53-120,166.66-38.23,57.83-78.41,114.84-129.6,162.08C925.68,597,850.17,636.62,769.48,658.54c-88.46,24-180.34,24.3-271,15.47-76.27-7.44-152.46-22.29-229.29-22.35-65.41,0-130,14.84-179.13,60.34C28.78,768.75,4.69,852.51,0.66,933.69c-.88,17.6-.83,35.23-.15,52.83.21,5.62,9,5.65,8.75,0Z" fill="#bee8b4"/><path d="M20.5,1002.22C17.41,922.08,28.21,837,75.77,770.05c21.16-29.8,49.14-54.66,82.18-70.5c29.57-14.17,62.24-20.59,94.8-22.63c73.66-4.61,147.6,9.13,220.5,17.61c85.14,9.89,171.22,14.58,256.13,0c84.28-14.49,166.34-47.46,235-98.89c54.45-40.82,98.6-92.5,137.66-147.86c38.84-55,73.34-113,113.8-167c44.56-59.36,96.94-112.4,159.49-152.81C1539.91,21.65,1744.16,5.8,1932.88,41.44c17.81,3.36,35.52,7.17,53.16,11.32c5.48,1.29,7.82-7.15,2.33-8.44C1804.48,1,1607.15,1.07,1434.23,84.89c-71.14,34.47-134,82.92-186.16,142.23-45.34,51.56-82.23,109.54-120,166.67-38.23,57.83-78.41,114.83-129.6,162.07-61.56,56.82-137.07,96.46-217.76,118.37-88.46,24-180.34,24.31-271,15.47-76.27-7.43-152.46-22.28-229.29-22.34-65.41-.05-130,14.83-179.13,60.34C40,784.45,15.93,868.21,11.9,949.39c-.88,17.6-.83,35.23-.15,52.83.21,5.61,9,5.64,8.75,0Z" fill="#9cdcbc"/><path d="M31.74,1017.92C28.65,937.78,39.45,852.72,87,785.75c21.17-29.8,49.15-54.67,82.19-70.5c29.57-14.17,62.24-20.59,94.8-22.63c73.66-4.61,147.6,9.13,220.5,17.6c85.14,9.9,171.22,14.59,256.13,0c84.28-14.49,166.34-47.47,235-98.89c54.45-40.82,98.6-92.5,137.66-147.86c38.84-55,73.34-113,113.8-167c44.56-59.36,96.94-112.41,159.49-152.81C1551.15,37.35,1755.4,21.5,1944.12,57.13q26.7,5.06,53.16,11.33c5.48,1.29,7.82-7.15,2.33-8.44-183.89-43.3-381.22-43.25-554.15,40.56-71.13,34.48-134,82.92-186.15,142.24-45.34,51.56-82.23,109.53-120,166.67-38.22,57.83-78.4,114.83-129.59,162.07C948.15,628.38,872.65,668,792,689.93c-88.46,24-180.34,24.31-271,15.47-76.27-7.44-152.46-22.28-229.29-22.34-65.41-.06-130,14.83-179.13,60.33-61.31,56.76-85.39,140.52-89.43,221.7-.87,17.6-.82,35.22-.14,52.83.21,5.61,9,5.64,8.75,0Z" fill="#48cea2"/><path d="M43,1033.61c-3.09-80.14,7.7-165.2,55.26-232.16c21.17-29.8,49.15-54.67,82.19-70.51c29.57-14.17,62.24-20.59,94.8-22.62c73.66-4.62,147.6,9.13,220.5,17.6c85.14,9.89,171.21,14.59,256.13,0c84.27-14.49,166.34-47.47,234.95-98.9c54.45-40.81,98.6-92.5,137.66-147.86c38.84-55,73.34-113,113.8-167c44.56-59.35,96.94-112.4,159.49-152.8c164.62-106.34,368.88-122.2,557.6-86.56c17.8,3.36,35.52,7.17,53.16,11.32c5.48,1.29,7.81-7.14,2.33-8.43C1827,32.41,1629.63,32.46,1456.7,116.28c-71.13,34.48-134,82.92-186.15,142.24-45.35,51.56-82.23,109.53-120,166.66C1112.33,483,1072.15,540,1021,587.26c-61.57,56.81-137.07,96.45-217.76,118.37-88.46,24-180.34,24.3-271,15.47-76.28-7.44-152.46-22.29-229.29-22.35-65.41,0-130,14.84-179.13,60.34C62.49,815.84,38.41,899.6,34.37,980.78c-.87,17.6-.82,35.23-.14,52.83.21,5.62,9,5.64,8.75,0Z" fill="#229aa2"/><path d="M54.22,1049.31c-3.09-80.14,7.7-165.2,55.26-232.17c21.17-29.8,49.15-54.67,82.19-70.5c29.57-14.17,62.24-20.59,94.8-22.63c73.65-4.61,147.59,9.13,220.5,17.61c85.14,9.89,171.21,14.58,256.13,0c84.27-14.49,166.34-47.46,234.94-98.89c54.46-40.82,98.61-92.5,137.67-147.86c38.83-55,73.34-113,113.8-167c44.55-59.36,96.94-112.4,159.49-152.81c164.62-106.34,368.88-122.19,557.6-86.55c17.8,3.36,35.52,7.17,53.16,11.32c5.48,1.29,7.81-7.15,2.33-8.44C1838.2,48.11,1640.87,48.16,1467.94,132c-71.13,34.47-134,82.92-186.15,142.23-45.35,51.56-82.23,109.54-120,166.67-38.22,57.83-78.4,114.83-129.59,162.07-61.57,56.82-137.07,96.45-217.76,118.37-88.47,24-180.34,24.31-271,15.47-76.28-7.43-152.46-22.28-229.29-22.34-65.41-.05-130,14.83-179.13,60.34C73.73,831.54,49.64,915.3,45.61,996.48c-.87,17.6-.82,35.23-.15,52.83.22,5.61,9,5.64,8.76,0Z" fill="#2270a2"/><path d="M65.45,1065c-3.08-80.15,7.71-165.2,55.27-232.17c21.16-29.8,49.14-54.67,82.19-70.5c29.56-14.17,62.24-20.59,94.79-22.63c73.66-4.61,147.6,9.13,220.51,17.6c85.14,9.89,171.21,14.59,256.12,0c84.28-14.49,166.35-47.47,234.95-98.89c54.46-40.82,98.61-92.5,137.67-147.86c38.83-55,73.33-113,113.8-167c44.55-59.36,96.94-112.41,159.49-152.81c164.62-106.34,368.88-122.19,557.59-86.56q26.72,5.06,53.17,11.33c5.47,1.29,7.81-7.15,2.32-8.44-183.88-43.31-381.21-43.25-554.14,40.56-71.13,34.48-134,82.92-186.15,142.24-45.35,51.56-82.23,109.53-120,166.67-38.22,57.83-78.41,114.83-129.59,162.07C981.87,675.47,906.37,715.1,825.68,737c-88.47,24-180.34,24.31-271,15.47-76.28-7.44-152.46-22.28-229.29-22.35-65.41,0-130,14.84-179.13,60.34C85,847.24,60.88,931,56.85,1012.18c-.87,17.6-.83,35.22-.15,52.83.22,5.61,9,5.64,8.75,0Z" fill="#5d38a8"/><path d="M76.69,1080.7C73.61,1000.56,84.4,915.5,132,848.54c21.16-29.8,49.14-54.67,82.19-70.51c29.56-14.17,62.24-20.59,94.79-22.62c73.66-4.62,147.6,9.13,220.51,17.6c85.13,9.89,171.21,14.59,256.12,0c84.28-14.49,166.35-47.47,234.95-98.9c54.45-40.81,98.61-92.5,137.67-147.86c38.83-55,73.33-113,113.8-167c44.55-59.36,96.94-112.4,159.49-152.81c164.62-106.33,368.87-122.19,557.59-86.55c17.81,3.36,35.53,7.17,53.17,11.32c5.47,1.29,7.81-7.14,2.32-8.44-183.89-43.3-381.21-43.25-554.14,40.57-71.13,34.48-134,82.92-186.15,142.24-45.35,51.56-82.24,109.53-120,166.66-38.22,57.83-78.41,114.84-129.6,162.08-61.56,56.81-137.06,96.45-217.75,118.37-88.47,24-180.34,24.3-271,15.47-76.28-7.44-152.46-22.29-229.29-22.35-65.41-.05-130,14.83-179.13,60.34-61.31,56.75-85.4,140.51-89.43,221.69-.87,17.6-.83,35.23-.15,52.83.22,5.62,9,5.64,8.75,0Z" fill="#740090"/><path d="M87.93,1096.4c-3.09-80.14,7.71-165.2,55.27-232.17c21.16-29.8,49.14-54.67,82.19-70.5c29.56-14.17,62.24-20.59,94.79-22.63c73.66-4.61,147.6,9.13,220.5,17.61c85.14,9.89,171.22,14.58,256.13,0c84.28-14.49,166.35-47.46,235-98.89c54.45-40.82,98.61-92.5,137.67-147.86c38.83-55,73.33-113.05,113.8-167c44.55-59.36,96.93-112.4,159.49-152.81c164.62-106.34,368.87-122.19,557.59-86.55c17.81,3.36,35.53,7.17,53.17,11.32c5.47,1.29,7.81-7.15,2.32-8.44-183.89-43.3-381.21-43.25-554.14,40.56-71.14,34.48-134,82.93-186.15,142.24-45.35,51.56-82.24,109.54-120,166.67C1157.28,545.8,1117.1,602.8,1065.91,650c-61.56,56.82-137.06,96.45-217.76,118.37-88.46,24-180.33,24.31-271,15.47-76.28-7.43-152.46-22.28-229.29-22.34-65.42,0-130,14.83-179.13,60.34-61.31,56.75-85.4,140.51-89.43,221.69-.87,17.6-.83,35.22-.15,52.83.22,5.61,9,5.64,8.75,0Z" fill="#b00888"/><path d="M99.17,1112.1c-3.09-80.15,7.71-165.21,55.27-232.17c21.16-29.8,49.14-54.67,82.18-70.5c29.57-14.17,62.25-20.59,94.8-22.63c73.66-4.61,147.6,9.13,220.5,17.6c85.14,9.89,171.22,14.59,256.13,0c84.28-14.49,166.35-47.47,235-98.89c54.45-40.82,98.6-92.5,137.66-147.86c38.84-55,73.34-113,113.8-167C1339,331.32,1391.4,278.27,1454,237.87c164.62-106.34,368.87-122.19,557.59-86.56q26.71,5,53.16,11.33c5.48,1.29,7.82-7.15,2.33-8.44-183.89-43.31-381.21-43.25-554.14,40.56-71.14,34.48-134,82.92-186.15,142.24-45.35,51.56-82.24,109.53-120,166.67-38.23,57.83-78.41,114.83-129.6,162.07-61.56,56.81-137.06,96.45-217.76,118.37-88.46,24-180.34,24.31-271,15.47-76.27-7.44-152.45-22.29-229.29-22.35-65.41-.05-130,14.84-179.12,60.34-61.31,56.76-85.4,140.52-89.43,221.7-.88,17.6-.83,35.22-.15,52.83.22,5.61,9,5.64,8.75,0Z" fill="#d61488"/><path d="M110.41,1127.79c-3.09-80.14,7.71-165.2,55.27-232.16c21.16-29.8,49.14-54.67,82.18-70.51c29.57-14.17,62.25-20.59,94.8-22.62c73.66-4.62,147.6,9.13,220.5,17.6c85.14,9.89,171.22,14.59,256.13,0c84.28-14.49,166.34-47.47,235-98.9c54.45-40.81,98.6-92.5,137.66-147.86c38.84-55,73.34-113.05,113.8-167c44.56-59.36,96.94-112.4,159.49-152.81c164.63-106.33,368.88-122.19,557.6-86.55c17.81,3.36,35.52,7.17,53.16,11.32c5.48,1.29,7.82-7.14,2.33-8.44-183.89-43.3-381.21-43.25-554.14,40.57-71.14,34.48-134,82.92-186.16,142.24-45.34,51.56-82.23,109.53-120,166.66-38.23,57.83-78.41,114.84-129.6,162.08-61.56,56.81-137.07,96.45-217.76,118.37-88.46,24-180.34,24.3-271,15.47-76.27-7.44-152.46-22.29-229.29-22.35-65.41,0-130,14.83-179.13,60.34C129.93,910,105.84,993.78,101.81,1075c-.88,17.6-.83,35.23-.15,52.83.21,5.62,9,5.64,8.75,0Z" fill="#ff004a"/><path d="M121.65,1143.49c-3.09-80.14,7.71-165.2,55.27-232.17c21.16-29.8,49.14-54.67,82.18-70.5c29.57-14.17,62.24-20.59,94.8-22.63c73.66-4.61,147.6,9.13,220.5,17.6c85.14,9.9,171.22,14.59,256.13,0c84.28-14.49,166.34-47.46,235-98.89c54.45-40.82,98.6-92.5,137.66-147.86c38.84-55,73.34-113,113.8-167c44.56-59.36,96.94-112.4,159.49-152.81c164.63-106.34,368.88-122.19,557.6-86.55c17.81,3.36,35.52,7.17,53.16,11.32c5.48,1.29,7.82-7.15,2.33-8.44-183.89-43.3-381.22-43.25-554.14,40.56-71.14,34.48-134,82.93-186.16,142.24-45.34,51.56-82.23,109.54-120,166.67-38.23,57.83-78.41,114.83-129.6,162.07-61.6,56.9-137.11,96.48-217.8,118.4-88.46,24-180.34,24.31-271,15.47-76.27-7.43-152.46-22.28-229.29-22.34-65.41,0-130,14.83-179.13,60.34-61.31,56.75-85.39,140.51-89.42,221.69-.88,17.6-.83,35.22-.15,52.83.21,5.61,9,5.64,8.75,0Z" fill="#ff4a45"/><path d="M132.89,1159.19C129.8,1079,140.6,994,188.15,927c21.17-29.8,49.15-54.67,82.19-70.5c29.57-14.17,62.24-20.59,94.8-22.63c73.66-4.61,147.6,9.13,220.5,17.6c85.14,9.89,171.22,14.59,256.13,0c84.28-14.49,166.34-47.47,235-98.89c54.45-40.82,98.6-92.5,137.66-147.86c38.84-55.05,73.34-113.06,113.8-167c44.56-59.36,96.94-112.41,159.49-152.81c164.63-106.34,368.88-122.2,557.6-86.56q26.71,5,53.16,11.33c5.48,1.29,7.82-7.15,2.33-8.44C1916.87,158,1719.54,158,1546.62,241.85c-71.14,34.48-134,82.92-186.16,142.24-45.34,51.56-82.23,109.53-120,166.67-38.23,57.83-78.41,114.83-129.6,162.07-61.56,56.81-137.06,96.45-217.75,118.37-88.46,24-180.34,24.31-271,15.47-76.27-7.44-152.46-22.29-229.29-22.35-65.41-.05-130,14.84-179.13,60.34-61.31,56.76-85.39,140.52-89.43,221.7-.87,17.6-.82,35.22-.14,52.83.21,5.61,9,5.64,8.75,0Z" fill="#ff9620"/><path d="M144.13,1174.88c-3.09-80.14,7.7-165.2,55.26-232.16c21.17-29.8,49.15-54.67,82.19-70.51c29.57-14.17,62.24-20.59,94.8-22.62C450,845,524,858.72,596.88,867.19c85.14,9.89,171.21,14.58,256.13,0c84.27-14.49,166.34-47.47,235-98.9c54.45-40.81,98.6-92.5,137.66-147.86c38.84-55,73.34-113,113.8-167c44.56-59.36,96.94-112.4,159.49-152.81c164.62-106.33,368.88-122.19,557.6-86.55c17.8,3.36,35.52,7.17,53.16,11.32c5.48,1.29,7.81-7.14,2.33-8.44-183.89-43.3-381.22-43.25-554.15,40.57-71.13,34.48-134,82.92-186.15,142.23-45.35,51.57-82.23,109.54-120,166.67-38.22,57.83-78.4,114.84-129.59,162.08C1060.54,785.34,985,825,904.35,846.9c-88.46,24-180.34,24.3-271,15.47-76.28-7.44-152.46-22.29-229.29-22.35-65.41,0-130,14.83-179.13,60.34-61.31,56.75-85.39,140.51-89.43,221.69-.87,17.6-.82,35.23-.14,52.83.21,5.62,9,5.64,8.75,0Z" fill="#ffb64a"/><path d="M155.37,1190.58c-3.09-80.14,7.7-165.2,55.26-232.17c21.17-29.8,49.15-54.67,82.19-70.5c29.57-14.17,62.24-20.59,94.8-22.63c73.65-4.61,147.6,9.13,220.5,17.6c85.14,9.9,171.21,14.59,256.13,0c84.27-14.49,166.34-47.46,235-98.89c54.45-40.82,98.6-92.5,137.66-147.86c38.83-55,73.34-113,113.8-167c44.55-59.36,96.94-112.4,159.49-152.81C1674.77,210,1879,194.16,2067.75,229.79q26.7,5.06,53.16,11.33c5.48,1.29,7.81-7.15,2.33-8.44-183.89-43.3-381.22-43.25-554.15,40.56-71.13,34.48-134,82.93-186.15,142.24-45.35,51.56-82.23,109.54-120,166.67-38.22,57.85-78.4,114.85-129.59,162.07-61.57,56.78-137.07,96.45-217.76,118.37-88.46,24-180.34,24.31-271,15.47-76.28-7.43-152.46-22.28-229.29-22.34-65.41-.05-130,14.83-179.13,60.34-61.31,56.75-85.4,140.51-89.43,221.69-.87,17.6-.82,35.22-.15,52.83.22,5.61,9,5.64,8.76,0Z" fill="#ffd644"/><path d="M163.25,1211.92c-3.09-80.14,7.71-165.2,55.27-232.17c21.16-29.8,49.14-54.66,82.18-70.5c29.57-14.17,62.25-20.59,94.8-22.63c73.66-4.61,147.6,9.13,220.5,17.61c85.14,9.89,171.22,14.58,256.13,0c84.28-14.49,166.34-47.46,234.95-98.89c54.45-40.82,98.6-92.5,137.66-147.86c38.84-55,73.34-113.05,113.8-167c44.56-59.36,96.94-112.4,159.49-152.81c164.63-106.34,368.88-122.19,557.6-86.55c17.81,3.36,35.52,7.17,53.16,11.32c5.48,1.29,7.82-7.15,2.33-8.44-183.89-43.3-381.22-43.25-554.14,40.57-71.14,34.47-134,82.92-186.16,142.23-45.34,51.56-82.23,109.54-120,166.67-38.23,57.83-78.41,114.83-129.6,162.07-61.56,56.82-137.07,96.46-217.76,118.37-88.46,24-180.34,24.31-271,15.47C576.22,892,500,877.12,423.2,877.06c-65.41,0-130,14.83-179.13,60.34-61.3,56.75-85.39,140.51-89.42,221.69-.88,17.6-.83,35.23-.15,52.83.21,5.61,9,5.64,8.75,0Z" fill="#bee8b4"/><path d="M174.49,1227.62c-3.09-80.15,7.71-165.2,55.27-232.17c21.16-29.8,49.14-54.67,82.18-70.5c29.57-14.17,62.24-20.59,94.8-22.63c73.66-4.61,147.6,9.13,220.5,17.6c85.14,9.9,171.22,14.59,256.13,0c84.28-14.49,166.34-47.47,234.95-98.89c54.45-40.82,98.6-92.5,137.66-147.86c38.84-55,73.34-113,113.8-167c44.56-59.36,96.94-112.41,159.49-152.81c164.63-106.34,368.88-122.19,557.6-86.56q26.72,5.06,53.16,11.33c5.48,1.29,7.82-7.15,2.33-8.44-183.89-43.31-381.22-43.25-554.14,40.56-71.14,34.48-134,82.92-186.16,142.24-45.34,51.56-82.23,109.53-120,166.67-38.22,57.84-78.4,114.84-129.59,162.1-61.57,56.82-137.07,96.45-217.76,118.37-88.46,24-180.34,24.31-271,15.47-76.27-7.44-152.46-22.28-229.29-22.35-65.41,0-130,14.84-179.13,60.34-61.31,56.76-85.39,140.52-89.42,221.7-.88,17.6-.83,35.22-.15,52.83.21,5.61,9,5.64,8.75,0Z" fill="#9cdcbc"/><path d="M185.73,1243.31c-3.09-80.14,7.7-165.2,55.26-232.16c21.17-29.8,49.15-54.67,82.19-70.51c29.57-14.17,62.24-20.59,94.8-22.62c73.66-4.62,147.6,9.13,220.5,17.6c85.14,9.89,171.22,14.59,256.13,0c84.28-14.49,166.34-47.47,234.95-98.9c54.45-40.81,98.6-92.5,137.66-147.86c38.84-55,73.34-113.05,113.8-167c44.56-59.36,96.94-112.4,159.49-152.81c164.63-106.33,368.88-122.19,557.6-86.55c17.8,3.36,35.52,7.17,53.16,11.32c5.48,1.29,7.82-7.14,2.33-8.44-183.89-43.3-381.22-43.25-554.15,40.57-71.13,34.48-134,82.92-186.15,142.24-45.34,51.56-82.23,109.53-120,166.66-38.22,57.83-78.4,114.84-129.59,162.08-61.57,56.81-137.07,96.45-217.76,118.37-88.46,24-180.34,24.3-271,15.47-76.27-7.44-152.46-22.29-229.29-22.35-65.41-.05-130,14.84-179.13,60.34-61.31,56.75-85.39,140.51-89.43,221.69-.87,17.6-.82,35.23-.14,52.83.21,5.62,9,5.64,8.75,0Z" fill="#48cea2"/><path d="M197,1259c-3.09-80.14,7.7-165.2,55.26-232.17c21.17-29.8,49.15-54.67,82.19-70.5c29.57-14.17,62.24-20.59,94.8-22.63c73.66-4.61,147.6,9.13,220.5,17.61c85.14,9.89,171.21,14.58,256.13,0c84.27-14.49,166.34-47.46,234.95-98.89c54.45-40.82,98.6-92.5,137.66-147.86c38.84-55,73.34-113,113.8-167c44.56-59.36,96.94-112.4,159.49-152.81c164.62-106.34,368.88-122.19,557.6-86.55c17.8,3.36,35.52,7.17,53.16,11.32c5.48,1.29,7.81-7.15,2.33-8.44-183.89-43.3-381.22-43.25-554.15,40.57-71.13,34.47-134,82.92-186.15,142.23-45.35,51.56-82.23,109.54-120,166.67-38.22,57.83-78.4,114.83-129.59,162.07-61.6,56.85-137.1,96.48-217.79,118.38-88.46,24-180.34,24.31-271,15.47-76.28-7.43-152.46-22.28-229.29-22.34-65.41,0-130,14.83-179.13,60.34-61.31,56.75-85.39,140.51-89.43,221.69-.87,17.6-.82,35.22-.14,52.83.21,5.61,9,5.64,8.75,0Z" fill="#229aa2"/><path d="M208.2,1274.71c-3.08-80.15,7.71-165.21,55.27-232.17c21.16-29.8,49.15-54.67,82.19-70.5c29.57-14.17,62.24-20.59,94.79-22.63c73.66-4.61,147.6,9.13,220.51,17.6c85.14,9.89,171.21,14.59,256.13,0c84.27-14.49,166.34-47.47,234.94-98.89c54.46-40.82,98.61-92.5,137.67-147.86c38.83-55,73.34-113,113.8-167c44.55-59.36,96.94-112.41,159.49-152.81c164.62-106.34,368.88-122.19,557.6-86.56q26.7,5,53.16,11.33c5.48,1.29,7.81-7.15,2.32-8.44-183.88-43.31-381.21-43.25-554.14,40.56-71.13,34.48-134,82.92-186.15,142.24-45.35,51.56-82.23,109.53-120,166.67-38.22,57.83-78.4,114.83-129.59,162.07-61.57,56.82-137.07,96.45-217.76,118.37-88.47,24-180.34,24.31-271,15.47-76.26-7.41-152.43-22.26-229.27-22.32-65.41-.05-130,14.84-179.13,60.34-61.31,56.76-85.4,140.52-89.43,221.7-.87,17.6-.82,35.22-.15,52.83.22,5.61,9,5.64,8.75,0Z" fill="#2270a2"/><path d="M219.44,1290.4c-3.08-80.14,7.71-165.2,55.27-232.16c21.16-29.8,49.14-54.67,82.19-70.51c29.56-14.17,62.24-20.59,94.79-22.62c73.66-4.62,147.6,9.13,220.51,17.6c85.14,9.89,171.21,14.59,256.12,0c84.28-14.49,166.35-47.47,234.95-98.9c54.45-40.81,98.61-92.5,137.67-147.86c38.83-55,73.33-113.05,113.8-167c44.55-59.36,96.94-112.4,159.49-152.81c164.62-106.33,368.88-122.19,557.59-86.55c17.81,3.36,35.53,7.17,53.17,11.32c5.47,1.29,7.81-7.14,2.32-8.44-183.88-43.3-381.21-43.25-554.14,40.57C1562,407.55,1499.18,456,1447,515.31c-45.35,51.56-82.23,109.53-120,166.66-38.22,57.83-78.41,114.84-129.59,162.08-61.57,56.81-137.07,96.45-217.76,118.37-88.47,24-180.34,24.3-271,15.47-76.28-7.44-152.46-22.29-229.29-22.35-65.41,0-130,14.83-179.13,60.34-61.31,56.75-85.4,140.51-89.43,221.69-.87,17.6-.83,35.23-.15,52.83.22,5.62,9,5.64,8.75,0Z" fill="#5d38a8"/><path d="M230.68,1306.1c-3.08-80.14,7.71-165.2,55.27-232.17c21.16-29.8,49.14-54.67,82.19-70.5c29.56-14.17,62.24-20.59,94.79-22.63c73.66-4.61,147.6,9.13,220.51,17.6c85.13,9.9,171.21,14.59,256.12,0c84.28-14.49,166.35-47.46,235-98.89c54.45-40.82,98.61-92.5,137.67-147.86c38.83-55,73.33-113,113.8-167c44.55-59.36,96.94-112.4,159.49-152.81c164.62-106.34,368.87-122.19,557.59-86.55c17.81,3.36,35.53,7.17,53.17,11.32c5.47,1.29,7.81-7.15,2.32-8.44-183.89-43.3-381.21-43.25-554.14,40.56-71.13,34.48-134,82.93-186.15,142.24-45.35,51.56-82.24,109.54-120,166.67-38.22,57.83-78.41,114.83-129.6,162.07-61.56,56.82-137.06,96.45-217.75,118.37-88.47,24-180.34,24.31-271,15.47-76.28-7.43-152.46-22.28-229.29-22.34-65.41,0-130,14.83-179.13,60.34-61.31,56.75-85.4,140.51-89.43,221.69-.87,17.6-.83,35.22-.15,52.83.22,5.61,9,5.64,8.75,0Z" fill="#740090"/><path d="M241.92,1321.8c-3.09-80.15,7.71-165.21,55.27-232.17c21.16-29.8,49.14-54.67,82.19-70.5c29.56-14.17,62.24-20.59,94.79-22.63c73.66-4.61,147.6,9.13,220.5,17.6c85.14,9.89,171.22,14.59,256.13,0c84.28-14.49,166.35-47.47,235-98.89c54.45-40.82,98.61-92.5,137.67-147.86c38.83-55.05,73.33-113.05,113.8-167c44.5-59.35,96.88-112.35,159.44-152.78c164.62-106.34,368.87-122.2,557.59-86.56q26.72,5,53.17,11.33c5.47,1.29,7.81-7.15,2.32-8.44-183.89-43.31-381.21-43.25-554.14,40.56-71.14,34.48-134,82.92-186.15,142.24-45.35,51.56-82.24,109.53-120,166.67-38.23,57.83-78.41,114.83-129.6,162.07-61.56,56.81-137.06,96.45-217.76,118.37-88.46,24-180.33,24.31-271,15.47-76.28-7.44-152.46-22.29-229.29-22.35-65.42,0-130,14.84-179.13,60.34-61.31,56.76-85.4,140.52-89.43,221.7-.88,17.6-.83,35.22-.15,52.83.22,5.61,9,5.64,8.75,0Z" fill="#b00888"/><path d="M253.16,1337.49c-3.09-80.14,7.71-165.2,55.27-232.16c21.16-29.8,49.14-54.67,82.18-70.51c29.57-14.17,62.25-20.59,94.8-22.62c73.66-4.62,147.6,9.13,220.5,17.6c85.14,9.89,171.22,14.59,256.13,0c84.28-14.49,166.35-47.47,235-98.9c54.45-40.81,98.6-92.5,137.66-147.86c38.84-55,73.34-113,113.8-167c44.56-59.36,96.94-112.4,159.5-152.81c164.62-106.33,368.87-122.19,557.59-86.55c17.81,3.36,35.53,7.17,53.16,11.32c5.48,1.29,7.82-7.14,2.33-8.44-183.89-43.3-381.21-43.25-554.14,40.57-71.14,34.48-134,82.92-186.15,142.23-45.35,51.57-82.24,109.54-120,166.67-38.23,57.83-78.41,114.84-129.6,162.08-61.56,56.81-137.06,96.45-217.76,118.37-88.46,24-180.34,24.3-271,15.47-76.27-7.44-152.45-22.29-229.29-22.35-65.41,0-130,14.83-179.12,60.34-61.31,56.75-85.4,140.51-89.43,221.69-.88,17.6-.83,35.23-.15,52.83.22,5.62,9,5.64,8.75,0Z" fill="#d61488"/><path d="M264.4,1353.19c-3.09-80.14,7.71-165.2,55.27-232.17c21.16-29.8,49.14-54.67,82.18-70.5c29.57-14.17,62.25-20.59,94.8-22.63c73.66-4.61,147.6,9.13,220.5,17.6c85.14,9.9,171.22,14.59,256.13,0c84.28-14.49,166.34-47.46,235-98.89c54.45-40.82,98.6-92.5,137.66-147.86c38.84-55,73.34-113.05,113.8-167c44.56-59.36,96.94-112.4,159.49-152.81c164.63-106.34,368.88-122.19,557.6-86.56q26.71,5.06,53.16,11.33c5.48,1.29,7.82-7.15,2.33-8.44C2048.38,352,1851.05,352,1678.13,435.85c-71.14,34.48-134,82.93-186.16,142.24-45.34,51.56-82.23,109.54-120,166.67-38.23,57.83-78.41,114.83-129.6,162.07-61.56,56.82-137.07,96.45-217.76,118.37-88.46,24-180.34,24.31-271,15.47-76.27-7.43-152.46-22.28-229.29-22.34-65.41-.05-130,14.83-179.13,60.34-61.3,56.75-85.39,140.51-89.42,221.69-.88,17.6-.83,35.22-.15,52.83.21,5.61,9,5.64,8.75,0Z" fill="#ff004a"/><path d="M275.64,1368.89c-3.09-80.15,7.71-165.21,55.27-232.17c21.16-29.8,49.14-54.67,82.18-70.5c29.57-14.17,62.24-20.59,94.8-22.63c73.66-4.61,147.6,9.13,220.5,17.6c85.14,9.89,171.22,14.59,256.13,0c84.28-14.49,166.34-47.47,235-98.89c54.45-40.82,98.6-92.51,137.66-147.86c38.84-55,73.34-113.06,113.8-167c44.56-59.36,96.94-112.41,159.49-152.81c164.63-106.34,368.88-122.2,557.6-86.56q26.71,5,53.16,11.33c5.48,1.29,7.82-7.15,2.33-8.44-183.89-43.31-381.22-43.25-554.14,40.56-71.14,34.48-134,82.92-186.16,142.24-45.34,51.56-82.23,109.53-120,166.67-38.23,57.83-78.41,114.83-129.6,162.07-61.56,56.81-137.07,96.45-217.76,118.37-88.46,24-180.34,24.31-271,15.47-76.27-7.44-152.46-22.29-229.29-22.35-65.41,0-130,14.84-179.13,60.34-61.31,56.76-85.39,140.52-89.42,221.7-.88,17.6-.83,35.22-.15,52.83.21,5.61,9,5.64,8.75,0Z" fill="#ff4a45"/><path d="M286.88,1384.58c-3.09-80.14,7.71-165.2,55.26-232.17c21.17-29.79,49.15-54.66,82.19-70.5c29.57-14.17,62.24-20.59,94.8-22.63c73.66-4.61,147.6,9.14,220.5,17.61c85.14,9.89,171.22,14.58,256.13,0c84.28-14.49,166.34-47.47,235-98.9c54.45-40.82,98.6-92.5,137.66-147.86c38.84-55,73.34-113,113.8-167c44.56-59.36,96.94-112.4,159.49-152.81c164.63-106.33,368.88-122.19,557.6-86.55c17.8,3.36,35.52,7.17,53.16,11.32c5.48,1.29,7.82-7.14,2.33-8.44-183.89-43.3-381.22-43.25-554.15,40.57-71.13,34.47-134,82.92-186.15,142.23-45.34,51.57-82.23,109.54-120,166.67C1356.23,834,1316.05,891,1264.86,938.23c-61.57,56.81-137.07,96.45-217.76,118.37-88.46,24-180.34,24.3-271,15.47-76.27-7.44-152.46-22.29-229.29-22.35-65.41,0-130,14.83-179.13,60.34-61.31,56.75-85.39,140.51-89.43,221.69-.87,17.6-.82,35.23-.14,52.83.21,5.62,9,5.64,8.75,0Z" fill="#ff9620"/><path d="M298.12,1400.28c-3.09-80.14,7.7-165.2,55.26-232.17c21.17-29.8,49.15-54.67,82.19-70.5c29.57-14.17,62.24-20.59,94.8-22.63c73.66-4.61,147.6,9.13,220.5,17.6c85.14,9.9,171.21,14.59,256.13,0c84.27-14.49,166.34-47.46,235-98.89c54.45-40.82,98.6-92.5,137.66-147.86c38.84-55,73.34-113.05,113.8-167c44.56-59.36,96.94-112.41,159.49-152.81c164.62-106.34,368.88-122.19,557.6-86.56q26.7,5.06,53.16,11.33c5.48,1.29,7.81-7.15,2.33-8.44-183.89-43.3-381.22-43.25-554.15,40.56-71.13,34.48-134,82.93-186.15,142.24-45.35,51.56-82.23,109.54-120,166.67-38.22,57.83-78.4,114.83-129.59,162.07-61.57,56.82-137.07,96.45-217.76,118.37-88.46,24-180.34,24.31-271,15.47-76.28-7.43-152.46-22.28-229.29-22.34-65.41-.05-130,14.83-179.13,60.34-61.31,56.75-85.39,140.51-89.43,221.69-.87,17.6-.82,35.22-.14,52.83.21,5.61,9,5.64,8.75,0Z" fill="#ffb64a"/><path d="M309.36,1416c-3.09-80.15,7.7-165.21,55.26-232.17c21.17-29.8,49.15-54.67,82.19-70.51c29.57-14.16,62.24-20.58,94.8-22.62c73.65-4.61,147.59,9.13,220.5,17.6c85.14,9.89,171.21,14.59,256.13,0c84.27-14.49,166.34-47.47,234.94-98.89c54.46-40.82,98.61-92.51,137.67-147.86c38.83-55,73.34-113.06,113.8-167c44.55-59.36,96.94-112.41,159.49-152.81c164.62-106.34,368.88-122.2,557.6-86.56q26.7,5,53.16,11.33c5.48,1.28,7.81-7.15,2.33-8.44-183.89-43.31-381.22-43.25-554.15,40.56-71.13,34.48-134,82.92-186.15,142.24-45.35,51.56-82.23,109.53-120,166.67-38.22,57.83-78.4,114.83-129.59,162.07-61.57,56.81-137.07,96.45-217.76,118.37-88.47,24-180.34,24.31-271,15.47-76.28-7.44-152.46-22.29-229.29-22.35-65.41,0-130,14.84-179.13,60.34-61.31,56.75-85.4,140.52-89.43,221.7-.87,17.6-.82,35.22-.15,52.83.22,5.61,9,5.64,8.76,0Z" fill="#ffd644"/><path d="M315,1438.66c-3.08-80.14,7.71-165.2,55.27-232.17c21.16-29.8,49.15-54.67,82.19-70.5c29.57-14.17,62.24-20.59,94.79-22.63c73.66-4.61,147.6,9.13,220.51,17.6c85.14,9.9,171.21,14.59,256.12,0c84.28-14.49,166.35-47.47,234.95-98.89c54.46-40.82,98.61-92.5,137.67-147.86c38.83-55,73.33-113.05,113.8-167c44.55-59.36,96.94-112.41,159.49-152.81c164.62-106.34,368.88-122.19,557.6-86.56q26.7,5.06,53.16,11.33c5.48,1.29,7.81-7.15,2.32-8.44-183.88-43.3-381.21-43.25-554.14,40.56-71.13,34.48-134,82.92-186.15,142.24-45.35,51.56-82.23,109.53-120,166.67-38.22,57.83-78.4,114.83-129.59,162.07-61.57,56.82-137.07,96.45-217.76,118.37-88.47,24-180.34,24.31-271,15.47-76.28-7.43-152.46-22.28-229.29-22.34-65.41-.06-130,14.83-179.13,60.34-61.31,56.75-85.4,140.51-89.43,221.69-.87,17.6-.82,35.22-.15,52.83.22,5.61,9,5.64,8.75,0Z" fill="#bee8b4"/><path d="M326.21,1454.35c-3.08-80.14,7.71-165.2,55.27-232.16c21.16-29.8,49.14-54.67,82.19-70.51c29.56-14.17,62.24-20.58,94.79-22.62c73.66-4.62,147.6,9.13,220.51,17.6c85.13,9.89,171.21,14.59,256.12,0c84.28-14.49,166.35-47.47,235-98.9c54.45-40.81,98.61-92.5,137.67-147.86c38.83-55,73.33-113,113.8-166.95c44.55-59.36,96.94-112.41,159.49-152.81c164.62-106.34,368.87-122.2,557.59-86.56c17.81,3.36,35.53,7.17,53.17,11.32c5.47,1.29,7.81-7.14,2.32-8.43-183.93-43.32-381.26-43.27-554.19,40.53-71.13,34.48-134,82.92-186.15,142.24-45.35,51.56-82.23,109.53-120,166.66-38.22,57.83-78.41,114.84-129.59,162.08-61.57,56.81-137.07,96.45-217.76,118.37-88.47,24-180.34,24.3-271,15.47-76.28-7.44-152.46-22.29-229.29-22.35-65.41,0-130,14.84-179.13,60.34-61.31,56.75-85.4,140.51-89.43,221.7-.87,17.59-.83,35.22-.15,52.82.22,5.62,9,5.65,8.75,0Z" fill="#9cdcbc"/><path d="M337.45,1470.05c-3.08-80.14,7.71-165.2,55.27-232.17c21.16-29.8,49.14-54.66,82.19-70.5c29.56-14.17,62.24-20.59,94.79-22.63c73.66-4.61,147.6,9.14,220.51,17.61c85.13,9.89,171.21,14.58,256.12,0c84.28-14.49,166.35-47.46,235-98.89c54.45-40.82,98.61-92.5,137.67-147.86c38.83-55,73.33-113.05,113.8-167c44.55-59.36,96.94-112.4,159.49-152.81c164.62-106.33,368.87-122.19,557.59-86.55c17.81,3.36,35.53,7.17,53.17,11.32c5.47,1.29,7.81-7.15,2.32-8.44-183.89-43.3-381.21-43.25-554.14,40.57-71.13,34.47-134,82.92-186.15,142.23-45.35,51.56-82.24,109.54-120,166.67-38.22,57.83-78.41,114.83-129.6,162.07-61.56,56.82-137.06,96.46-217.75,118.37-88.47,24-180.34,24.31-271,15.47-76.28-7.43-152.46-22.28-229.29-22.34-65.42,0-130,14.83-179.13,60.34-61.31,56.75-85.4,140.51-89.43,221.69-.87,17.6-.83,35.23-.15,52.83.22,5.61,9,5.64,8.75,0Z" fill="#48cea2"/><path d="M348.69,1485.75c-3.09-80.14,7.71-165.2,55.27-232.17c21.16-29.8,49.14-54.67,82.18-70.5c29.57-14.17,62.25-20.59,94.8-22.63c73.66-4.61,147.6,9.13,220.5,17.6c85.14,9.9,171.22,14.59,256.13,0c84.28-14.49,166.35-47.47,235-98.89c54.45-40.82,98.61-92.5,137.67-147.86c38.83-55,73.33-113,113.8-167c44.55-59.36,96.93-112.41,159.49-152.81C1868.1,505.18,2072.35,489.33,2261.07,525q26.71,5.06,53.17,11.33c5.47,1.29,7.81-7.15,2.32-8.44-183.89-43.3-381.21-43.25-554.14,40.56-71.14,34.48-134,82.92-186.15,142.24-45.35,51.56-82.24,109.53-120,166.67-38.23,57.83-78.41,114.83-129.6,162.07-61.56,56.82-137.06,96.45-217.76,118.37-88.46,24-180.33,24.31-271,15.47-76.27-7.43-152.45-22.28-229.28-22.34-65.42-.06-130,14.83-179.13,60.34-61.31,56.75-85.4,140.51-89.43,221.69-.88,17.6-.83,35.22-.15,52.83.22,5.61,9,5.64,8.75,0Z" fill="#229aa2"/><path d="M359.93,1501.44c-3.09-80.14,7.71-165.2,55.27-232.16c21.16-29.8,49.14-54.67,82.18-70.51c29.57-14.17,62.25-20.58,94.8-22.62c73.66-4.62,147.6,9.13,220.5,17.6c85.14,9.89,171.22,14.59,256.13,0c84.28-14.49,166.35-47.47,235-98.9c54.45-40.81,98.6-92.5,137.66-147.86c38.84-55,73.34-113.05,113.8-167c44.56-59.35,96.94-112.4,159.49-152.8c164.63-106.34,368.88-122.2,557.6-86.56c17.81,3.36,35.53,7.17,53.16,11.32c5.48,1.29,7.82-7.14,2.33-8.43-183.89-43.31-381.21-43.26-554.14,40.56-71.14,34.48-134,82.92-186.15,142.24-45.35,51.56-82.24,109.53-120,166.66-38.23,57.83-78.41,114.84-129.6,162.08-61.56,56.81-137.06,96.45-217.76,118.37-88.46,24-180.34,24.3-271,15.47-76.27-7.44-152.46-22.29-229.29-22.35-65.41,0-130,14.84-179.12,60.34-61.31,56.75-85.4,140.51-89.43,221.69-.88,17.6-.83,35.23-.15,52.83.22,5.62,9,5.65,8.75,0Z" fill="#2270a2"/><path d="M371.17,1517.14c-3.09-80.14,7.71-165.2,55.27-232.17c21.16-29.8,49.14-54.66,82.18-70.5c29.57-14.17,62.24-20.59,94.8-22.63c73.66-4.61,147.6,9.13,220.5,17.61c85.14,9.89,171.22,14.58,256.13,0c84.28-14.49,166.34-47.46,235-98.89c54.45-40.82,98.6-92.5,137.66-147.86c38.84-55,73.34-113,113.8-167C1611,736.36,1663.4,683.32,1726,642.91c164.63-106.34,368.88-122.19,557.6-86.55c17.81,3.36,35.52,7.17,53.16,11.32c5.48,1.29,7.82-7.15,2.33-8.44-183.89-43.3-381.22-43.25-554.14,40.57-71.14,34.47-134,82.92-186.16,142.23-45.34,51.56-82.23,109.54-120,166.67-38.23,57.83-78.41,114.83-129.6,162.07-61.56,56.82-137.07,96.46-217.76,118.37-88.46,24-180.34,24.31-271,15.47-76.27-7.43-152.46-22.28-229.29-22.34-65.41,0-130,14.83-179.13,60.34-61.3,56.75-85.39,140.51-89.42,221.69-.88,17.6-.83,35.23-.15,52.83.21,5.61,9,5.64,8.75,0Z" fill="#5d38a8"/><path d="M382.41,1532.84c-3.09-80.14,7.71-165.2,55.26-232.17c21.17-29.8,49.15-54.67,82.19-70.5c29.57-14.17,62.24-20.59,94.8-22.63c73.66-4.61,147.6,9.13,220.5,17.6c85.14,9.9,171.22,14.59,256.13,0c84.28-14.49,166.34-47.47,235-98.89c54.45-40.82,98.6-92.5,137.66-147.86c38.84-55,73.34-113,113.8-167c44.56-59.36,96.94-112.41,159.49-152.81c164.63-106.34,368.88-122.19,557.6-86.56q26.72,5.06,53.16,11.33c5.48,1.29,7.82-7.15,2.33-8.44-183.89-43.3-381.22-43.25-554.14,40.56C1725,650,1662.15,698.42,1610,757.74c-45.34,51.56-82.23,109.53-120,166.67-38.23,57.83-78.41,114.83-129.6,162.07-61.57,56.82-137.07,96.45-217.76,118.37-88.46,24-180.34,24.31-271,15.47-76.27-7.44-152.46-22.28-229.29-22.34-65.41-.06-130,14.83-179.13,60.33-61.31,56.76-85.39,140.52-89.42,221.7-.88,17.6-.83,35.22-.15,52.83.21,5.61,9,5.64,8.75,0Z" fill="#740090"/><path d="M393.65,1548.53c-3.09-80.14,7.7-165.2,55.26-232.16c21.17-29.8,49.15-54.67,82.19-70.51c29.57-14.17,62.24-20.58,94.8-22.62c73.66-4.62,147.6,9.13,220.5,17.6c85.14,9.89,171.22,14.59,256.13,0c84.28-14.49,166.34-47.47,235-98.9c54.45-40.81,98.6-92.5,137.66-147.86c38.84-55,73.34-113.05,113.8-167c44.56-59.35,96.94-112.4,159.49-152.8C1913.06,568,2117.31,552.11,2306,587.75c17.8,3.36,35.52,7.17,53.16,11.32c5.48,1.29,7.82-7.14,2.33-8.43-183.89-43.31-381.22-43.26-554.15,40.56-71.13,34.48-134,82.92-186.15,142.24C1575.88,825,1539,883,1501.22,940.1c-38.22,57.83-78.4,114.84-129.59,162.08-61.57,56.81-137.07,96.45-217.76,118.37-88.46,24-180.34,24.3-271,15.47-76.27-7.44-152.46-22.29-229.29-22.35-65.41-.05-130,14.84-179.13,60.34-61.31,56.75-85.39,140.51-89.43,221.69-.87,17.6-.82,35.23-.14,52.83.21,5.62,9,5.64,8.75,0Z" fill="#b00888"/><path d="M404.89,1564.23c-3.09-80.14,7.7-165.2,55.26-232.17c21.17-29.8,49.15-54.67,82.19-70.5c29.57-14.17,62.24-20.59,94.8-22.63c73.66-4.61,147.6,9.13,220.5,17.61c85.14,9.89,171.21,14.58,256.13,0c84.27-14.49,166.34-47.46,235-98.89c54.45-40.82,98.6-92.5,137.66-147.86c38.84-55,73.34-113,113.8-167c44.55-59.36,96.94-112.4,159.49-152.81c164.62-106.34,368.88-122.19,557.6-86.55c17.8,3.36,35.52,7.17,53.16,11.32c5.48,1.29,7.81-7.15,2.33-8.44-183.89-43.3-381.22-43.25-554.15,40.57-71.13,34.47-134,82.92-186.15,142.23-45.35,51.56-82.23,109.54-120,166.67-38.22,57.83-78.4,114.83-129.59,162.07-61.57,56.82-137.07,96.46-217.76,118.37-88.46,24-180.34,24.31-271,15.47-76.28-7.43-152.46-22.28-229.29-22.34-65.41,0-130,14.83-179.13,60.34-61.31,56.75-85.39,140.51-89.43,221.69-.87,17.6-.82,35.23-.15,52.83.22,5.61,9,5.64,8.76,0Z" fill="#d61488"/><path d="M416.12,1579.93c-3.08-80.15,7.71-165.2,55.27-232.17c21.16-29.8,49.15-54.67,82.19-70.5c29.57-14.17,62.24-20.59,94.79-22.63c73.66-4.61,147.6,9.13,220.51,17.6c85.14,9.89,171.21,14.59,256.13,0c84.27-14.49,166.34-47.47,234.94-98.89c54.46-40.82,98.61-92.5,137.67-147.86c38.83-55,73.34-113.05,113.8-167c44.55-59.36,96.94-112.41,159.49-152.81c164.62-106.34,368.88-122.19,557.6-86.56q26.7,5.05,53.16,11.33c5.48,1.29,7.81-7.15,2.32-8.44-183.88-43.31-381.21-43.25-554.14,40.56-71.13,34.48-134,82.92-186.15,142.24-45.35,51.56-82.23,109.53-120,166.67-38.22,57.83-78.4,114.83-129.59,162.07-61.57,56.82-137.07,96.45-217.76,118.37-88.47,24-180.34,24.31-271,15.47-76.28-7.44-152.46-22.28-229.29-22.35-65.41,0-130,14.84-179.13,60.34-61.31,56.76-85.4,140.52-89.43,221.7-.87,17.6-.82,35.22-.15,52.83.22,5.61,9,5.64,8.75,0Z" fill="#ff004a"/><path d="M427.36,1595.62c-3.08-80.14,7.71-165.2,55.27-232.16c21.16-29.8,49.14-54.67,82.19-70.51c29.56-14.17,62.24-20.59,94.79-22.62c73.66-4.62,147.6,9.13,220.51,17.6c85.14,9.89,171.21,14.59,256.12,0c84.28-14.49,166.35-47.47,235-98.9c54.45-40.81,98.61-92.5,137.67-147.86c38.83-55,73.33-113.05,113.8-167c44.55-59.36,96.94-112.4,159.49-152.81c164.57-106.3,368.8-122.16,557.54-86.52c17.81,3.36,35.53,7.17,53.17,11.32c5.47,1.29,7.81-7.14,2.32-8.44-183.88-43.3-381.21-43.25-554.14,40.57-71.13,34.48-134,82.92-186.15,142.24-45.35,51.56-82.23,109.53-120,166.66-38.22,57.83-78.41,114.84-129.59,162.08-61.57,56.81-137.07,96.45-217.76,118.37-88.47,24-180.34,24.3-271,15.47-76.28-7.44-152.46-22.29-229.29-22.35-65.41,0-130,14.84-179.13,60.34-61.31,56.75-85.4,140.51-89.43,221.69-.87,17.6-.83,35.23-.15,52.83.22,5.62,9,5.64,8.75,0Z" fill="#ff4a45"/><path d="M438.6,1611.32c-3.08-80.14,7.71-165.2,55.27-232.17c21.16-29.8,49.14-54.67,82.19-70.5c29.56-14.17,62.24-20.59,94.79-22.63c73.66-4.61,147.6,9.13,220.51,17.61c85.13,9.89,171.21,14.58,256.12,0c84.28-14.49,166.35-47.46,235-98.89c54.45-40.82,98.61-92.5,137.67-147.86c38.83-55,73.33-113,113.8-167c44.55-59.36,96.94-112.4,159.49-152.81C1958,630.75,2162.26,614.9,2351,650.54c17.81,3.36,35.53,7.17,53.17,11.32c5.47,1.29,7.81-7.15,2.32-8.44-183.89-43.3-381.21-43.25-554.14,40.56-71.13,34.48-134,82.93-186.15,142.24-45.35,51.56-82.24,109.54-120,166.67-38.22,57.83-78.41,114.83-129.6,162.07-61.56,56.82-137.06,96.45-217.75,118.37-88.47,24-180.34,24.31-271,15.47-76.28-7.43-152.46-22.28-229.29-22.34-65.42,0-130,14.83-179.13,60.34-61.31,56.75-85.4,140.51-89.43,221.69-.87,17.6-.83,35.22-.15,52.83.22,5.61,9,5.64,8.75,0Z" fill="#ff9620"/><path d="M449.84,1627c-3.09-80.15,7.71-165.21,55.27-232.17c21.16-29.8,49.14-54.67,82.19-70.5c29.56-14.17,62.24-20.59,94.79-22.63c73.66-4.61,147.6,9.13,220.5,17.6c85.14,9.89,171.22,14.59,256.13,0c84.28-14.49,166.35-47.47,235-98.89c54.45-40.82,98.61-92.5,137.67-147.86c38.83-55,73.33-113,113.8-167c44.55-59.36,96.93-112.41,159.49-152.81c164.62-106.34,368.87-122.19,557.59-86.56q26.72,5,53.17,11.33c5.47,1.29,7.81-7.15,2.32-8.44-183.89-43.31-381.21-43.25-554.14,40.56-71.14,34.48-134,82.92-186.15,142.24-45.35,51.56-82.24,109.53-120,166.67-38.23,57.83-78.41,114.83-129.6,162.07-61.56,56.81-137.06,96.45-217.76,118.37-88.46,24-180.33,24.31-271,15.47-76.28-7.44-152.46-22.29-229.29-22.35-65.42-.05-130,14.84-179.13,60.34-61.31,56.76-85.4,140.52-89.43,221.7-.88,17.6-.83,35.22-.15,52.83.22,5.61,9,5.64,8.75,0Z" fill="#ffb64a"/><path d="M461.08,1642.71c-3.09-80.14,7.71-165.2,55.27-232.16c21.16-29.8,49.14-54.67,82.18-70.51c29.57-14.17,62.25-20.59,94.8-22.62c73.66-4.62,147.6,9.13,220.5,17.6c85.14,9.89,171.22,14.59,256.13,0c84.28-14.49,166.35-47.47,235-98.9c54.45-40.81,98.6-92.5,137.66-147.86c38.84-55,73.34-113,113.8-167c44.56-59.36,96.94-112.4,159.5-152.81c164.62-106.33,368.87-122.19,557.59-86.55c17.81,3.36,35.53,7.17,53.16,11.32c5.48,1.29,7.82-7.14,2.33-8.44-183.89-43.3-381.21-43.25-554.14,40.57-71.14,34.48-134,82.92-186.15,142.24-45.35,51.56-82.24,109.53-120,166.66-38.23,57.83-78.41,114.84-129.6,162.08-61.56,56.81-137.06,96.45-217.76,118.37-88.46,24-180.34,24.3-271,15.47-76.27-7.44-152.46-22.29-229.29-22.35-65.41,0-130,14.83-179.12,60.34-61.31,56.75-85.4,140.51-89.43,221.69-.88,17.6-.83,35.23-.15,52.83.22,5.62,9,5.64,8.75,0Z" fill="#ffd644"/></g></g><g transform="translate(-1991.579593 934.532936)"><g><path d="M9.26,986.52C6.17,906.38,17,821.32,64.53,754.36c21.16-29.8,49.14-54.67,82.18-70.51c29.57-14.17,62.25-20.58,94.8-22.62c73.66-4.62,147.6,9.13,220.5,17.6c85.14,9.89,171.22,14.59,256.13,0c84.28-14.49,166.34-47.47,235-98.9c54.45-40.81,98.6-92.5,137.66-147.86c38.84-55,73.34-113,113.8-167c44.56-59.35,96.94-112.4,159.49-152.8C1528.67,6,1732.92,-9.9,1921.64,25.74c17.81,3.36,35.52,7.17,53.16,11.32c5.48,1.29,7.82-7.14,2.33-8.43-183.89-43.31-381.22-43.26-554.13,40.56-71.14,34.48-134,82.92-186.16,142.24-45.34,51.56-82.23,109.53-120,166.66-38.23,57.83-78.41,114.84-129.6,162.08C925.68,597,850.17,636.62,769.48,658.54c-88.46,24-180.34,24.3-271,15.47-76.27-7.44-152.46-22.29-229.29-22.35-65.41,0-130,14.84-179.13,60.34C28.78,768.75,4.69,852.51,0.66,933.69c-.88,17.6-.83,35.23-.15,52.83.21,5.62,9,5.65,8.75,0Z" fill="#bee8b4"/><path d="M20.5,1002.22C17.41,922.08,28.21,837,75.77,770.05c21.16-29.8,49.14-54.66,82.18-70.5c29.57-14.17,62.24-20.59,94.8-22.63c73.66-4.61,147.6,9.13,220.5,17.61c85.14,9.89,171.22,14.58,256.13,0c84.28-14.49,166.34-47.46,235-98.89c54.45-40.82,98.6-92.5,137.66-147.86c38.84-55,73.34-113,113.8-167c44.56-59.36,96.94-112.4,159.49-152.81C1539.91,21.65,1744.16,5.8,1932.88,41.44c17.81,3.36,35.52,7.17,53.16,11.32c5.48,1.29,7.82-7.15,2.33-8.44C1804.48,1,1607.15,1.07,1434.23,84.89c-71.14,34.47-134,82.92-186.16,142.23-45.34,51.56-82.23,109.54-120,166.67-38.23,57.83-78.41,114.83-129.6,162.07-61.56,56.82-137.07,96.46-217.76,118.37-88.46,24-180.34,24.31-271,15.47-76.27-7.43-152.46-22.28-229.29-22.34-65.41-.05-130,14.83-179.13,60.34C40,784.45,15.93,868.21,11.9,949.39c-.88,17.6-.83,35.23-.15,52.83.21,5.61,9,5.64,8.75,0Z" fill="#9cdcbc"/><path d="M31.74,1017.92C28.65,937.78,39.45,852.72,87,785.75c21.17-29.8,49.15-54.67,82.19-70.5c29.57-14.17,62.24-20.59,94.8-22.63c73.66-4.61,147.6,9.13,220.5,17.6c85.14,9.9,171.22,14.59,256.13,0c84.28-14.49,166.34-47.47,235-98.89c54.45-40.82,98.6-92.5,137.66-147.86c38.84-55,73.34-113,113.8-167c44.56-59.36,96.94-112.41,159.49-152.81C1551.15,37.35,1755.4,21.5,1944.12,57.13q26.7,5.06,53.16,11.33c5.48,1.29,7.82-7.15,2.33-8.44-183.89-43.3-381.22-43.25-554.15,40.56-71.13,34.48-134,82.92-186.15,142.24-45.34,51.56-82.23,109.53-120,166.67-38.22,57.83-78.4,114.83-129.59,162.07C948.15,628.38,872.65,668,792,689.93c-88.46,24-180.34,24.31-271,15.47-76.27-7.44-152.46-22.28-229.29-22.34-65.41-.06-130,14.83-179.13,60.33-61.31,56.76-85.39,140.52-89.43,221.7-.87,17.6-.82,35.22-.14,52.83.21,5.61,9,5.64,8.75,0Z" fill="#48cea2"/><path d="M43,1033.61c-3.09-80.14,7.7-165.2,55.26-232.16c21.17-29.8,49.15-54.67,82.19-70.51c29.57-14.17,62.24-20.59,94.8-22.62c73.66-4.62,147.6,9.13,220.5,17.6c85.14,9.89,171.21,14.59,256.13,0c84.27-14.49,166.34-47.47,234.95-98.9c54.45-40.81,98.6-92.5,137.66-147.86c38.84-55,73.34-113,113.8-167c44.56-59.35,96.94-112.4,159.49-152.8c164.62-106.34,368.88-122.2,557.6-86.56c17.8,3.36,35.52,7.17,53.16,11.32c5.48,1.29,7.81-7.14,2.33-8.43C1827,32.41,1629.63,32.46,1456.7,116.28c-71.13,34.48-134,82.92-186.15,142.24-45.35,51.56-82.23,109.53-120,166.66C1112.33,483,1072.15,540,1021,587.26c-61.57,56.81-137.07,96.45-217.76,118.37-88.46,24-180.34,24.3-271,15.47-76.28-7.44-152.46-22.29-229.29-22.35-65.41,0-130,14.84-179.13,60.34C62.49,815.84,38.41,899.6,34.37,980.78c-.87,17.6-.82,35.23-.14,52.83.21,5.62,9,5.64,8.75,0Z" fill="#229aa2"/><path d="M54.22,1049.31c-3.09-80.14,7.7-165.2,55.26-232.17c21.17-29.8,49.15-54.67,82.19-70.5c29.57-14.17,62.24-20.59,94.8-22.63c73.65-4.61,147.59,9.13,220.5,17.61c85.14,9.89,171.21,14.58,256.13,0c84.27-14.49,166.34-47.46,234.94-98.89c54.46-40.82,98.61-92.5,137.67-147.86c38.83-55,73.34-113,113.8-167c44.55-59.36,96.94-112.4,159.49-152.81c164.62-106.34,368.88-122.19,557.6-86.55c17.8,3.36,35.52,7.17,53.16,11.32c5.48,1.29,7.81-7.15,2.33-8.44C1838.2,48.11,1640.87,48.16,1467.94,132c-71.13,34.47-134,82.92-186.15,142.23-45.35,51.56-82.23,109.54-120,166.67-38.22,57.83-78.4,114.83-129.59,162.07-61.57,56.82-137.07,96.45-217.76,118.37-88.47,24-180.34,24.31-271,15.47-76.28-7.43-152.46-22.28-229.29-22.34-65.41-.05-130,14.83-179.13,60.34C73.73,831.54,49.64,915.3,45.61,996.48c-.87,17.6-.82,35.23-.15,52.83.22,5.61,9,5.64,8.76,0Z" fill="#2270a2"/><path d="M65.45,1065c-3.08-80.15,7.71-165.2,55.27-232.17c21.16-29.8,49.14-54.67,82.19-70.5c29.56-14.17,62.24-20.59,94.79-22.63c73.66-4.61,147.6,9.13,220.51,17.6c85.14,9.89,171.21,14.59,256.12,0c84.28-14.49,166.35-47.47,234.95-98.89c54.46-40.82,98.61-92.5,137.67-147.86c38.83-55,73.33-113,113.8-167c44.55-59.36,96.94-112.41,159.49-152.81c164.62-106.34,368.88-122.19,557.59-86.56q26.72,5.06,53.17,11.33c5.47,1.29,7.81-7.15,2.32-8.44-183.88-43.31-381.21-43.25-554.14,40.56-71.13,34.48-134,82.92-186.15,142.24-45.35,51.56-82.23,109.53-120,166.67-38.22,57.83-78.41,114.83-129.59,162.07C981.87,675.47,906.37,715.1,825.68,737c-88.47,24-180.34,24.31-271,15.47-76.28-7.44-152.46-22.28-229.29-22.35-65.41,0-130,14.84-179.13,60.34C85,847.24,60.88,931,56.85,1012.18c-.87,17.6-.83,35.22-.15,52.83.22,5.61,9,5.64,8.75,0Z" fill="#5d38a8"/><path d="M76.69,1080.7C73.61,1000.56,84.4,915.5,132,848.54c21.16-29.8,49.14-54.67,82.19-70.51c29.56-14.17,62.24-20.59,94.79-22.62c73.66-4.62,147.6,9.13,220.51,17.6c85.13,9.89,171.21,14.59,256.12,0c84.28-14.49,166.35-47.47,234.95-98.9c54.45-40.81,98.61-92.5,137.67-147.86c38.83-55,73.33-113,113.8-167c44.55-59.36,96.94-112.4,159.49-152.81c164.62-106.33,368.87-122.19,557.59-86.55c17.81,3.36,35.53,7.17,53.17,11.32c5.47,1.29,7.81-7.14,2.32-8.44-183.89-43.3-381.21-43.25-554.14,40.57-71.13,34.48-134,82.92-186.15,142.24-45.35,51.56-82.24,109.53-120,166.66-38.22,57.83-78.41,114.84-129.6,162.08-61.56,56.81-137.06,96.45-217.75,118.37-88.47,24-180.34,24.3-271,15.47-76.28-7.44-152.46-22.29-229.29-22.35-65.41-.05-130,14.83-179.13,60.34-61.31,56.75-85.4,140.51-89.43,221.69-.87,17.6-.83,35.23-.15,52.83.22,5.62,9,5.64,8.75,0Z" fill="#740090"/><path d="M87.93,1096.4c-3.09-80.14,7.71-165.2,55.27-232.17c21.16-29.8,49.14-54.67,82.19-70.5c29.56-14.17,62.24-20.59,94.79-22.63c73.66-4.61,147.6,9.13,220.5,17.61c85.14,9.89,171.22,14.58,256.13,0c84.28-14.49,166.35-47.46,235-98.89c54.45-40.82,98.61-92.5,137.67-147.86c38.83-55,73.33-113.05,113.8-167c44.55-59.36,96.93-112.4,159.49-152.81c164.62-106.34,368.87-122.19,557.59-86.55c17.81,3.36,35.53,7.17,53.17,11.32c5.47,1.29,7.81-7.15,2.32-8.44-183.89-43.3-381.21-43.25-554.14,40.56-71.14,34.48-134,82.93-186.15,142.24-45.35,51.56-82.24,109.54-120,166.67C1157.28,545.8,1117.1,602.8,1065.91,650c-61.56,56.82-137.06,96.45-217.76,118.37-88.46,24-180.33,24.31-271,15.47-76.28-7.43-152.46-22.28-229.29-22.34-65.42,0-130,14.83-179.13,60.34-61.31,56.75-85.4,140.51-89.43,221.69-.87,17.6-.83,35.22-.15,52.83.22,5.61,9,5.64,8.75,0Z" fill="#b00888"/><path d="M99.17,1112.1c-3.09-80.15,7.71-165.21,55.27-232.17c21.16-29.8,49.14-54.67,82.18-70.5c29.57-14.17,62.25-20.59,94.8-22.63c73.66-4.61,147.6,9.13,220.5,17.6c85.14,9.89,171.22,14.59,256.13,0c84.28-14.49,166.35-47.47,235-98.89c54.45-40.82,98.6-92.5,137.66-147.86c38.84-55,73.34-113,113.8-167C1339,331.32,1391.4,278.27,1454,237.87c164.62-106.34,368.87-122.19,557.59-86.56q26.71,5,53.16,11.33c5.48,1.29,7.82-7.15,2.33-8.44-183.89-43.31-381.21-43.25-554.14,40.56-71.14,34.48-134,82.92-186.15,142.24-45.35,51.56-82.24,109.53-120,166.67-38.23,57.83-78.41,114.83-129.6,162.07-61.56,56.81-137.06,96.45-217.76,118.37-88.46,24-180.34,24.31-271,15.47-76.27-7.44-152.45-22.29-229.29-22.35-65.41-.05-130,14.84-179.12,60.34-61.31,56.76-85.4,140.52-89.43,221.7-.88,17.6-.83,35.22-.15,52.83.22,5.61,9,5.64,8.75,0Z" fill="#d61488"/><path d="M110.41,1127.79c-3.09-80.14,7.71-165.2,55.27-232.16c21.16-29.8,49.14-54.67,82.18-70.51c29.57-14.17,62.25-20.59,94.8-22.62c73.66-4.62,147.6,9.13,220.5,17.6c85.14,9.89,171.22,14.59,256.13,0c84.28-14.49,166.34-47.47,235-98.9c54.45-40.81,98.6-92.5,137.66-147.86c38.84-55,73.34-113.05,113.8-167c44.56-59.36,96.94-112.4,159.49-152.81c164.63-106.33,368.88-122.19,557.6-86.55c17.81,3.36,35.52,7.17,53.16,11.32c5.48,1.29,7.82-7.14,2.33-8.44-183.89-43.3-381.21-43.25-554.14,40.57-71.14,34.48-134,82.92-186.16,142.24-45.34,51.56-82.23,109.53-120,166.66-38.23,57.83-78.41,114.84-129.6,162.08-61.56,56.81-137.07,96.45-217.76,118.37-88.46,24-180.34,24.3-271,15.47-76.27-7.44-152.46-22.29-229.29-22.35-65.41,0-130,14.83-179.13,60.34C129.93,910,105.84,993.78,101.81,1075c-.88,17.6-.83,35.23-.15,52.83.21,5.62,9,5.64,8.75,0Z" fill="#ff004a"/><path d="M121.65,1143.49c-3.09-80.14,7.71-165.2,55.27-232.17c21.16-29.8,49.14-54.67,82.18-70.5c29.57-14.17,62.24-20.59,94.8-22.63c73.66-4.61,147.6,9.13,220.5,17.6c85.14,9.9,171.22,14.59,256.13,0c84.28-14.49,166.34-47.46,235-98.89c54.45-40.82,98.6-92.5,137.66-147.86c38.84-55,73.34-113,113.8-167c44.56-59.36,96.94-112.4,159.49-152.81c164.63-106.34,368.88-122.19,557.6-86.55c17.81,3.36,35.52,7.17,53.16,11.32c5.48,1.29,7.82-7.15,2.33-8.44-183.89-43.3-381.22-43.25-554.14,40.56-71.14,34.48-134,82.93-186.16,142.24-45.34,51.56-82.23,109.54-120,166.67-38.23,57.83-78.41,114.83-129.6,162.07-61.6,56.9-137.11,96.48-217.8,118.4-88.46,24-180.34,24.31-271,15.47-76.27-7.43-152.46-22.28-229.29-22.34-65.41,0-130,14.83-179.13,60.34-61.31,56.75-85.39,140.51-89.42,221.69-.88,17.6-.83,35.22-.15,52.83.21,5.61,9,5.64,8.75,0Z" fill="#ff4a45"/><path d="M132.89,1159.19C129.8,1079,140.6,994,188.15,927c21.17-29.8,49.15-54.67,82.19-70.5c29.57-14.17,62.24-20.59,94.8-22.63c73.66-4.61,147.6,9.13,220.5,17.6c85.14,9.89,171.22,14.59,256.13,0c84.28-14.49,166.34-47.47,235-98.89c54.45-40.82,98.6-92.5,137.66-147.86c38.84-55.05,73.34-113.06,113.8-167c44.56-59.36,96.94-112.41,159.49-152.81c164.63-106.34,368.88-122.2,557.6-86.56q26.71,5,53.16,11.33c5.48,1.29,7.82-7.15,2.33-8.44C1916.87,158,1719.54,158,1546.62,241.85c-71.14,34.48-134,82.92-186.16,142.24-45.34,51.56-82.23,109.53-120,166.67-38.23,57.83-78.41,114.83-129.6,162.07-61.56,56.81-137.06,96.45-217.75,118.37-88.46,24-180.34,24.31-271,15.47-76.27-7.44-152.46-22.29-229.29-22.35-65.41-.05-130,14.84-179.13,60.34-61.31,56.76-85.39,140.52-89.43,221.7-.87,17.6-.82,35.22-.14,52.83.21,5.61,9,5.64,8.75,0Z" fill="#ff9620"/><path d="M144.13,1174.88c-3.09-80.14,7.7-165.2,55.26-232.16c21.17-29.8,49.15-54.67,82.19-70.51c29.57-14.17,62.24-20.59,94.8-22.62C450,845,524,858.72,596.88,867.19c85.14,9.89,171.21,14.58,256.13,0c84.27-14.49,166.34-47.47,235-98.9c54.45-40.81,98.6-92.5,137.66-147.86c38.84-55,73.34-113,113.8-167c44.56-59.36,96.94-112.4,159.49-152.81c164.62-106.33,368.88-122.19,557.6-86.55c17.8,3.36,35.52,7.17,53.16,11.32c5.48,1.29,7.81-7.14,2.33-8.44-183.89-43.3-381.22-43.25-554.15,40.57-71.13,34.48-134,82.92-186.15,142.23-45.35,51.57-82.23,109.54-120,166.67-38.22,57.83-78.4,114.84-129.59,162.08C1060.54,785.34,985,825,904.35,846.9c-88.46,24-180.34,24.3-271,15.47-76.28-7.44-152.46-22.29-229.29-22.35-65.41,0-130,14.83-179.13,60.34-61.31,56.75-85.39,140.51-89.43,221.69-.87,17.6-.82,35.23-.14,52.83.21,5.62,9,5.64,8.75,0Z" fill="#ffb64a"/><path d="M155.37,1190.58c-3.09-80.14,7.7-165.2,55.26-232.17c21.17-29.8,49.15-54.67,82.19-70.5c29.57-14.17,62.24-20.59,94.8-22.63c73.65-4.61,147.6,9.13,220.5,17.6c85.14,9.9,171.21,14.59,256.13,0c84.27-14.49,166.34-47.46,235-98.89c54.45-40.82,98.6-92.5,137.66-147.86c38.83-55,73.34-113,113.8-167c44.55-59.36,96.94-112.4,159.49-152.81C1674.77,210,1879,194.16,2067.75,229.79q26.7,5.06,53.16,11.33c5.48,1.29,7.81-7.15,2.33-8.44-183.89-43.3-381.22-43.25-554.15,40.56-71.13,34.48-134,82.93-186.15,142.24-45.35,51.56-82.23,109.54-120,166.67-38.22,57.85-78.4,114.85-129.59,162.07-61.57,56.78-137.07,96.45-217.76,118.37-88.46,24-180.34,24.31-271,15.47-76.28-7.43-152.46-22.28-229.29-22.34-65.41-.05-130,14.83-179.13,60.34-61.31,56.75-85.4,140.51-89.43,221.69-.87,17.6-.82,35.22-.15,52.83.22,5.61,9,5.64,8.76,0Z" fill="#ffd644"/><path d="M163.25,1211.92c-3.09-80.14,7.71-165.2,55.27-232.17c21.16-29.8,49.14-54.66,82.18-70.5c29.57-14.17,62.25-20.59,94.8-22.63c73.66-4.61,147.6,9.13,220.5,17.61c85.14,9.89,171.22,14.58,256.13,0c84.28-14.49,166.34-47.46,234.95-98.89c54.45-40.82,98.6-92.5,137.66-147.86c38.84-55,73.34-113.05,113.8-167c44.56-59.36,96.94-112.4,159.49-152.81c164.63-106.34,368.88-122.19,557.6-86.55c17.81,3.36,35.52,7.17,53.16,11.32c5.48,1.29,7.82-7.15,2.33-8.44-183.89-43.3-381.22-43.25-554.14,40.57-71.14,34.47-134,82.92-186.16,142.23-45.34,51.56-82.23,109.54-120,166.67-38.23,57.83-78.41,114.83-129.6,162.07-61.56,56.82-137.07,96.46-217.76,118.37-88.46,24-180.34,24.31-271,15.47C576.22,892,500,877.12,423.2,877.06c-65.41,0-130,14.83-179.13,60.34-61.3,56.75-85.39,140.51-89.42,221.69-.88,17.6-.83,35.23-.15,52.83.21,5.61,9,5.64,8.75,0Z" fill="#bee8b4"/><path d="M174.49,1227.62c-3.09-80.15,7.71-165.2,55.27-232.17c21.16-29.8,49.14-54.67,82.18-70.5c29.57-14.17,62.24-20.59,94.8-22.63c73.66-4.61,147.6,9.13,220.5,17.6c85.14,9.9,171.22,14.59,256.13,0c84.28-14.49,166.34-47.47,234.95-98.89c54.45-40.82,98.6-92.5,137.66-147.86c38.84-55,73.34-113,113.8-167c44.56-59.36,96.94-112.41,159.49-152.81c164.63-106.34,368.88-122.19,557.6-86.56q26.72,5.06,53.16,11.33c5.48,1.29,7.82-7.15,2.33-8.44-183.89-43.31-381.22-43.25-554.14,40.56-71.14,34.48-134,82.92-186.16,142.24-45.34,51.56-82.23,109.53-120,166.67-38.22,57.84-78.4,114.84-129.59,162.1-61.57,56.82-137.07,96.45-217.76,118.37-88.46,24-180.34,24.31-271,15.47-76.27-7.44-152.46-22.28-229.29-22.35-65.41,0-130,14.84-179.13,60.34-61.31,56.76-85.39,140.52-89.42,221.7-.88,17.6-.83,35.22-.15,52.83.21,5.61,9,5.64,8.75,0Z" fill="#9cdcbc"/><path d="M185.73,1243.31c-3.09-80.14,7.7-165.2,55.26-232.16c21.17-29.8,49.15-54.67,82.19-70.51c29.57-14.17,62.24-20.59,94.8-22.62c73.66-4.62,147.6,9.13,220.5,17.6c85.14,9.89,171.22,14.59,256.13,0c84.28-14.49,166.34-47.47,234.95-98.9c54.45-40.81,98.6-92.5,137.66-147.86c38.84-55,73.34-113.05,113.8-167c44.56-59.36,96.94-112.4,159.49-152.81c164.63-106.33,368.88-122.19,557.6-86.55c17.8,3.36,35.52,7.17,53.16,11.32c5.48,1.29,7.82-7.14,2.33-8.44-183.89-43.3-381.22-43.25-554.15,40.57-71.13,34.48-134,82.92-186.15,142.24-45.34,51.56-82.23,109.53-120,166.66-38.22,57.83-78.4,114.84-129.59,162.08-61.57,56.81-137.07,96.45-217.76,118.37-88.46,24-180.34,24.3-271,15.47-76.27-7.44-152.46-22.29-229.29-22.35-65.41-.05-130,14.84-179.13,60.34-61.31,56.75-85.39,140.51-89.43,221.69-.87,17.6-.82,35.23-.14,52.83.21,5.62,9,5.64,8.75,0Z" fill="#48cea2"/><path d="M197,1259c-3.09-80.14,7.7-165.2,55.26-232.17c21.17-29.8,49.15-54.67,82.19-70.5c29.57-14.17,62.24-20.59,94.8-22.63c73.66-4.61,147.6,9.13,220.5,17.61c85.14,9.89,171.21,14.58,256.13,0c84.27-14.49,166.34-47.46,234.95-98.89c54.45-40.82,98.6-92.5,137.66-147.86c38.84-55,73.34-113,113.8-167c44.56-59.36,96.94-112.4,159.49-152.81c164.62-106.34,368.88-122.19,557.6-86.55c17.8,3.36,35.52,7.17,53.16,11.32c5.48,1.29,7.81-7.15,2.33-8.44-183.89-43.3-381.22-43.25-554.15,40.57-71.13,34.47-134,82.92-186.15,142.23-45.35,51.56-82.23,109.54-120,166.67-38.22,57.83-78.4,114.83-129.59,162.07-61.6,56.85-137.1,96.48-217.79,118.38-88.46,24-180.34,24.31-271,15.47-76.28-7.43-152.46-22.28-229.29-22.34-65.41,0-130,14.83-179.13,60.34-61.31,56.75-85.39,140.51-89.43,221.69-.87,17.6-.82,35.22-.14,52.83.21,5.61,9,5.64,8.75,0Z" fill="#229aa2"/><path d="M208.2,1274.71c-3.08-80.15,7.71-165.21,55.27-232.17c21.16-29.8,49.15-54.67,82.19-70.5c29.57-14.17,62.24-20.59,94.79-22.63c73.66-4.61,147.6,9.13,220.51,17.6c85.14,9.89,171.21,14.59,256.13,0c84.27-14.49,166.34-47.47,234.94-98.89c54.46-40.82,98.61-92.5,137.67-147.86c38.83-55,73.34-113,113.8-167c44.55-59.36,96.94-112.41,159.49-152.81c164.62-106.34,368.88-122.19,557.6-86.56q26.7,5,53.16,11.33c5.48,1.29,7.81-7.15,2.32-8.44-183.88-43.31-381.21-43.25-554.14,40.56-71.13,34.48-134,82.92-186.15,142.24-45.35,51.56-82.23,109.53-120,166.67-38.22,57.83-78.4,114.83-129.59,162.07-61.57,56.82-137.07,96.45-217.76,118.37-88.47,24-180.34,24.31-271,15.47-76.26-7.41-152.43-22.26-229.27-22.32-65.41-.05-130,14.84-179.13,60.34-61.31,56.76-85.4,140.52-89.43,221.7-.87,17.6-.82,35.22-.15,52.83.22,5.61,9,5.64,8.75,0Z" fill="#2270a2"/><path d="M219.44,1290.4c-3.08-80.14,7.71-165.2,55.27-232.16c21.16-29.8,49.14-54.67,82.19-70.51c29.56-14.17,62.24-20.59,94.79-22.62c73.66-4.62,147.6,9.13,220.51,17.6c85.14,9.89,171.21,14.59,256.12,0c84.28-14.49,166.35-47.47,234.95-98.9c54.45-40.81,98.61-92.5,137.67-147.86c38.83-55,73.33-113.05,113.8-167c44.55-59.36,96.94-112.4,159.49-152.81c164.62-106.33,368.88-122.19,557.59-86.55c17.81,3.36,35.53,7.17,53.17,11.32c5.47,1.29,7.81-7.14,2.32-8.44-183.88-43.3-381.21-43.25-554.14,40.57C1562,407.55,1499.18,456,1447,515.31c-45.35,51.56-82.23,109.53-120,166.66-38.22,57.83-78.41,114.84-129.59,162.08-61.57,56.81-137.07,96.45-217.76,118.37-88.47,24-180.34,24.3-271,15.47-76.28-7.44-152.46-22.29-229.29-22.35-65.41,0-130,14.83-179.13,60.34-61.31,56.75-85.4,140.51-89.43,221.69-.87,17.6-.83,35.23-.15,52.83.22,5.62,9,5.64,8.75,0Z" fill="#5d38a8"/><path d="M230.68,1306.1c-3.08-80.14,7.71-165.2,55.27-232.17c21.16-29.8,49.14-54.67,82.19-70.5c29.56-14.17,62.24-20.59,94.79-22.63c73.66-4.61,147.6,9.13,220.51,17.6c85.13,9.9,171.21,14.59,256.12,0c84.28-14.49,166.35-47.46,235-98.89c54.45-40.82,98.61-92.5,137.67-147.86c38.83-55,73.33-113,113.8-167c44.55-59.36,96.94-112.4,159.49-152.81c164.62-106.34,368.87-122.19,557.59-86.55c17.81,3.36,35.53,7.17,53.17,11.32c5.47,1.29,7.81-7.15,2.32-8.44-183.89-43.3-381.21-43.25-554.14,40.56-71.13,34.48-134,82.93-186.15,142.24-45.35,51.56-82.24,109.54-120,166.67-38.22,57.83-78.41,114.83-129.6,162.07-61.56,56.82-137.06,96.45-217.75,118.37-88.47,24-180.34,24.31-271,15.47-76.28-7.43-152.46-22.28-229.29-22.34-65.41,0-130,14.83-179.13,60.34-61.31,56.75-85.4,140.51-89.43,221.69-.87,17.6-.83,35.22-.15,52.83.22,5.61,9,5.64,8.75,0Z" fill="#740090"/><path d="M241.92,1321.8c-3.09-80.15,7.71-165.21,55.27-232.17c21.16-29.8,49.14-54.67,82.19-70.5c29.56-14.17,62.24-20.59,94.79-22.63c73.66-4.61,147.6,9.13,220.5,17.6c85.14,9.89,171.22,14.59,256.13,0c84.28-14.49,166.35-47.47,235-98.89c54.45-40.82,98.61-92.5,137.67-147.86c38.83-55.05,73.33-113.05,113.8-167c44.5-59.35,96.88-112.35,159.44-152.78c164.62-106.34,368.87-122.2,557.59-86.56q26.72,5,53.17,11.33c5.47,1.29,7.81-7.15,2.32-8.44-183.89-43.31-381.21-43.25-554.14,40.56-71.14,34.48-134,82.92-186.15,142.24-45.35,51.56-82.24,109.53-120,166.67-38.23,57.83-78.41,114.83-129.6,162.07-61.56,56.81-137.06,96.45-217.76,118.37-88.46,24-180.33,24.31-271,15.47-76.28-7.44-152.46-22.29-229.29-22.35-65.42,0-130,14.84-179.13,60.34-61.31,56.76-85.4,140.52-89.43,221.7-.88,17.6-.83,35.22-.15,52.83.22,5.61,9,5.64,8.75,0Z" fill="#b00888"/><path d="M253.16,1337.49c-3.09-80.14,7.71-165.2,55.27-232.16c21.16-29.8,49.14-54.67,82.18-70.51c29.57-14.17,62.25-20.59,94.8-22.62c73.66-4.62,147.6,9.13,220.5,17.6c85.14,9.89,171.22,14.59,256.13,0c84.28-14.49,166.35-47.47,235-98.9c54.45-40.81,98.6-92.5,137.66-147.86c38.84-55,73.34-113,113.8-167c44.56-59.36,96.94-112.4,159.5-152.81c164.62-106.33,368.87-122.19,557.59-86.55c17.81,3.36,35.53,7.17,53.16,11.32c5.48,1.29,7.82-7.14,2.33-8.44-183.89-43.3-381.21-43.25-554.14,40.57-71.14,34.48-134,82.92-186.15,142.23-45.35,51.57-82.24,109.54-120,166.67-38.23,57.83-78.41,114.84-129.6,162.08-61.56,56.81-137.06,96.45-217.76,118.37-88.46,24-180.34,24.3-271,15.47-76.27-7.44-152.45-22.29-229.29-22.35-65.41,0-130,14.83-179.12,60.34-61.31,56.75-85.4,140.51-89.43,221.69-.88,17.6-.83,35.23-.15,52.83.22,5.62,9,5.64,8.75,0Z" fill="#d61488"/><path d="M264.4,1353.19c-3.09-80.14,7.71-165.2,55.27-232.17c21.16-29.8,49.14-54.67,82.18-70.5c29.57-14.17,62.25-20.59,94.8-22.63c73.66-4.61,147.6,9.13,220.5,17.6c85.14,9.9,171.22,14.59,256.13,0c84.28-14.49,166.34-47.46,235-98.89c54.45-40.82,98.6-92.5,137.66-147.86c38.84-55,73.34-113.05,113.8-167c44.56-59.36,96.94-112.4,159.49-152.81c164.63-106.34,368.88-122.19,557.6-86.56q26.71,5.06,53.16,11.33c5.48,1.29,7.82-7.15,2.33-8.44C2048.38,352,1851.05,352,1678.13,435.85c-71.14,34.48-134,82.93-186.16,142.24-45.34,51.56-82.23,109.54-120,166.67-38.23,57.83-78.41,114.83-129.6,162.07-61.56,56.82-137.07,96.45-217.76,118.37-88.46,24-180.34,24.31-271,15.47-76.27-7.43-152.46-22.28-229.29-22.34-65.41-.05-130,14.83-179.13,60.34-61.3,56.75-85.39,140.51-89.42,221.69-.88,17.6-.83,35.22-.15,52.83.21,5.61,9,5.64,8.75,0Z" fill="#ff004a"/><path d="M275.64,1368.89c-3.09-80.15,7.71-165.21,55.27-232.17c21.16-29.8,49.14-54.67,82.18-70.5c29.57-14.17,62.24-20.59,94.8-22.63c73.66-4.61,147.6,9.13,220.5,17.6c85.14,9.89,171.22,14.59,256.13,0c84.28-14.49,166.34-47.47,235-98.89c54.45-40.82,98.6-92.51,137.66-147.86c38.84-55,73.34-113.06,113.8-167c44.56-59.36,96.94-112.41,159.49-152.81c164.63-106.34,368.88-122.2,557.6-86.56q26.71,5,53.16,11.33c5.48,1.29,7.82-7.15,2.33-8.44-183.89-43.31-381.22-43.25-554.14,40.56-71.14,34.48-134,82.92-186.16,142.24-45.34,51.56-82.23,109.53-120,166.67-38.23,57.83-78.41,114.83-129.6,162.07-61.56,56.81-137.07,96.45-217.76,118.37-88.46,24-180.34,24.31-271,15.47-76.27-7.44-152.46-22.29-229.29-22.35-65.41,0-130,14.84-179.13,60.34-61.31,56.76-85.39,140.52-89.42,221.7-.88,17.6-.83,35.22-.15,52.83.21,5.61,9,5.64,8.75,0Z" fill="#ff4a45"/><path d="M286.88,1384.58c-3.09-80.14,7.71-165.2,55.26-232.17c21.17-29.79,49.15-54.66,82.19-70.5c29.57-14.17,62.24-20.59,94.8-22.63c73.66-4.61,147.6,9.14,220.5,17.61c85.14,9.89,171.22,14.58,256.13,0c84.28-14.49,166.34-47.47,235-98.9c54.45-40.82,98.6-92.5,137.66-147.86c38.84-55,73.34-113,113.8-167c44.56-59.36,96.94-112.4,159.49-152.81c164.63-106.33,368.88-122.19,557.6-86.55c17.8,3.36,35.52,7.17,53.16,11.32c5.48,1.29,7.82-7.14,2.33-8.44-183.89-43.3-381.22-43.25-554.15,40.57-71.13,34.47-134,82.92-186.15,142.23-45.34,51.57-82.23,109.54-120,166.67C1356.23,834,1316.05,891,1264.86,938.23c-61.57,56.81-137.07,96.45-217.76,118.37-88.46,24-180.34,24.3-271,15.47-76.27-7.44-152.46-22.29-229.29-22.35-65.41,0-130,14.83-179.13,60.34-61.31,56.75-85.39,140.51-89.43,221.69-.87,17.6-.82,35.23-.14,52.83.21,5.62,9,5.64,8.75,0Z" fill="#ff9620"/><path d="M298.12,1400.28c-3.09-80.14,7.7-165.2,55.26-232.17c21.17-29.8,49.15-54.67,82.19-70.5c29.57-14.17,62.24-20.59,94.8-22.63c73.66-4.61,147.6,9.13,220.5,17.6c85.14,9.9,171.21,14.59,256.13,0c84.27-14.49,166.34-47.46,235-98.89c54.45-40.82,98.6-92.5,137.66-147.86c38.84-55,73.34-113.05,113.8-167c44.56-59.36,96.94-112.41,159.49-152.81c164.62-106.34,368.88-122.19,557.6-86.56q26.7,5.06,53.16,11.33c5.48,1.29,7.81-7.15,2.33-8.44-183.89-43.3-381.22-43.25-554.15,40.56-71.13,34.48-134,82.93-186.15,142.24-45.35,51.56-82.23,109.54-120,166.67-38.22,57.83-78.4,114.83-129.59,162.07-61.57,56.82-137.07,96.45-217.76,118.37-88.46,24-180.34,24.31-271,15.47-76.28-7.43-152.46-22.28-229.29-22.34-65.41-.05-130,14.83-179.13,60.34-61.31,56.75-85.39,140.51-89.43,221.69-.87,17.6-.82,35.22-.14,52.83.21,5.61,9,5.64,8.75,0Z" fill="#ffb64a"/><path d="M309.36,1416c-3.09-80.15,7.7-165.21,55.26-232.17c21.17-29.8,49.15-54.67,82.19-70.51c29.57-14.16,62.24-20.58,94.8-22.62c73.65-4.61,147.59,9.13,220.5,17.6c85.14,9.89,171.21,14.59,256.13,0c84.27-14.49,166.34-47.47,234.94-98.89c54.46-40.82,98.61-92.51,137.67-147.86c38.83-55,73.34-113.06,113.8-167c44.55-59.36,96.94-112.41,159.49-152.81c164.62-106.34,368.88-122.2,557.6-86.56q26.7,5,53.16,11.33c5.48,1.28,7.81-7.15,2.33-8.44-183.89-43.31-381.22-43.25-554.15,40.56-71.13,34.48-134,82.92-186.15,142.24-45.35,51.56-82.23,109.53-120,166.67-38.22,57.83-78.4,114.83-129.59,162.07-61.57,56.81-137.07,96.45-217.76,118.37-88.47,24-180.34,24.31-271,15.47-76.28-7.44-152.46-22.29-229.29-22.35-65.41,0-130,14.84-179.13,60.34-61.31,56.75-85.4,140.52-89.43,221.7-.87,17.6-.82,35.22-.15,52.83.22,5.61,9,5.64,8.76,0Z" fill="#ffd644"/><path d="M315,1438.66c-3.08-80.14,7.71-165.2,55.27-232.17c21.16-29.8,49.15-54.67,82.19-70.5c29.57-14.17,62.24-20.59,94.79-22.63c73.66-4.61,147.6,9.13,220.51,17.6c85.14,9.9,171.21,14.59,256.12,0c84.28-14.49,166.35-47.47,234.95-98.89c54.46-40.82,98.61-92.5,137.67-147.86c38.83-55,73.33-113.05,113.8-167c44.55-59.36,96.94-112.41,159.49-152.81c164.62-106.34,368.88-122.19,557.6-86.56q26.7,5.06,53.16,11.33c5.48,1.29,7.81-7.15,2.32-8.44-183.88-43.3-381.21-43.25-554.14,40.56-71.13,34.48-134,82.92-186.15,142.24-45.35,51.56-82.23,109.53-120,166.67-38.22,57.83-78.4,114.83-129.59,162.07-61.57,56.82-137.07,96.45-217.76,118.37-88.47,24-180.34,24.31-271,15.47-76.28-7.43-152.46-22.28-229.29-22.34-65.41-.06-130,14.83-179.13,60.34-61.31,56.75-85.4,140.51-89.43,221.69-.87,17.6-.82,35.22-.15,52.83.22,5.61,9,5.64,8.75,0Z" fill="#bee8b4"/><path d="M326.21,1454.35c-3.08-80.14,7.71-165.2,55.27-232.16c21.16-29.8,49.14-54.67,82.19-70.51c29.56-14.17,62.24-20.58,94.79-22.62c73.66-4.62,147.6,9.13,220.51,17.6c85.13,9.89,171.21,14.59,256.12,0c84.28-14.49,166.35-47.47,235-98.9c54.45-40.81,98.61-92.5,137.67-147.86c38.83-55,73.33-113,113.8-166.95c44.55-59.36,96.94-112.41,159.49-152.81c164.62-106.34,368.87-122.2,557.59-86.56c17.81,3.36,35.53,7.17,53.17,11.32c5.47,1.29,7.81-7.14,2.32-8.43-183.93-43.32-381.26-43.27-554.19,40.53-71.13,34.48-134,82.92-186.15,142.24-45.35,51.56-82.23,109.53-120,166.66-38.22,57.83-78.41,114.84-129.59,162.08-61.57,56.81-137.07,96.45-217.76,118.37-88.47,24-180.34,24.3-271,15.47-76.28-7.44-152.46-22.29-229.29-22.35-65.41,0-130,14.84-179.13,60.34-61.31,56.75-85.4,140.51-89.43,221.7-.87,17.59-.83,35.22-.15,52.82.22,5.62,9,5.65,8.75,0Z" fill="#9cdcbc"/><path d="M337.45,1470.05c-3.08-80.14,7.71-165.2,55.27-232.17c21.16-29.8,49.14-54.66,82.19-70.5c29.56-14.17,62.24-20.59,94.79-22.63c73.66-4.61,147.6,9.14,220.51,17.61c85.13,9.89,171.21,14.58,256.12,0c84.28-14.49,166.35-47.46,235-98.89c54.45-40.82,98.61-92.5,137.67-147.86c38.83-55,73.33-113.05,113.8-167c44.55-59.36,96.94-112.4,159.49-152.81c164.62-106.33,368.87-122.19,557.59-86.55c17.81,3.36,35.53,7.17,53.17,11.32c5.47,1.29,7.81-7.15,2.32-8.44-183.89-43.3-381.21-43.25-554.14,40.57-71.13,34.47-134,82.92-186.15,142.23-45.35,51.56-82.24,109.54-120,166.67-38.22,57.83-78.41,114.83-129.6,162.07-61.56,56.82-137.06,96.46-217.75,118.37-88.47,24-180.34,24.31-271,15.47-76.28-7.43-152.46-22.28-229.29-22.34-65.42,0-130,14.83-179.13,60.34-61.31,56.75-85.4,140.51-89.43,221.69-.87,17.6-.83,35.23-.15,52.83.22,5.61,9,5.64,8.75,0Z" fill="#48cea2"/><path d="M348.69,1485.75c-3.09-80.14,7.71-165.2,55.27-232.17c21.16-29.8,49.14-54.67,82.18-70.5c29.57-14.17,62.25-20.59,94.8-22.63c73.66-4.61,147.6,9.13,220.5,17.6c85.14,9.9,171.22,14.59,256.13,0c84.28-14.49,166.35-47.47,235-98.89c54.45-40.82,98.61-92.5,137.67-147.86c38.83-55,73.33-113,113.8-167c44.55-59.36,96.93-112.41,159.49-152.81C1868.1,505.18,2072.35,489.33,2261.07,525q26.71,5.06,53.17,11.33c5.47,1.29,7.81-7.15,2.32-8.44-183.89-43.3-381.21-43.25-554.14,40.56-71.14,34.48-134,82.92-186.15,142.24-45.35,51.56-82.24,109.53-120,166.67-38.23,57.83-78.41,114.83-129.6,162.07-61.56,56.82-137.06,96.45-217.76,118.37-88.46,24-180.33,24.31-271,15.47-76.27-7.43-152.45-22.28-229.28-22.34-65.42-.06-130,14.83-179.13,60.34-61.31,56.75-85.4,140.51-89.43,221.69-.88,17.6-.83,35.22-.15,52.83.22,5.61,9,5.64,8.75,0Z" fill="#229aa2"/><path d="M359.93,1501.44c-3.09-80.14,7.71-165.2,55.27-232.16c21.16-29.8,49.14-54.67,82.18-70.51c29.57-14.17,62.25-20.58,94.8-22.62c73.66-4.62,147.6,9.13,220.5,17.6c85.14,9.89,171.22,14.59,256.13,0c84.28-14.49,166.35-47.47,235-98.9c54.45-40.81,98.6-92.5,137.66-147.86c38.84-55,73.34-113.05,113.8-167c44.56-59.35,96.94-112.4,159.49-152.8c164.63-106.34,368.88-122.2,557.6-86.56c17.81,3.36,35.53,7.17,53.16,11.32c5.48,1.29,7.82-7.14,2.33-8.43-183.89-43.31-381.21-43.26-554.14,40.56-71.14,34.48-134,82.92-186.15,142.24-45.35,51.56-82.24,109.53-120,166.66-38.23,57.83-78.41,114.84-129.6,162.08-61.56,56.81-137.06,96.45-217.76,118.37-88.46,24-180.34,24.3-271,15.47-76.27-7.44-152.46-22.29-229.29-22.35-65.41,0-130,14.84-179.12,60.34-61.31,56.75-85.4,140.51-89.43,221.69-.88,17.6-.83,35.23-.15,52.83.22,5.62,9,5.65,8.75,0Z" fill="#2270a2"/><path d="M371.17,1517.14c-3.09-80.14,7.71-165.2,55.27-232.17c21.16-29.8,49.14-54.66,82.18-70.5c29.57-14.17,62.24-20.59,94.8-22.63c73.66-4.61,147.6,9.13,220.5,17.61c85.14,9.89,171.22,14.58,256.13,0c84.28-14.49,166.34-47.46,235-98.89c54.45-40.82,98.6-92.5,137.66-147.86c38.84-55,73.34-113,113.8-167C1611,736.36,1663.4,683.32,1726,642.91c164.63-106.34,368.88-122.19,557.6-86.55c17.81,3.36,35.52,7.17,53.16,11.32c5.48,1.29,7.82-7.15,2.33-8.44-183.89-43.3-381.22-43.25-554.14,40.57-71.14,34.47-134,82.92-186.16,142.23-45.34,51.56-82.23,109.54-120,166.67-38.23,57.83-78.41,114.83-129.6,162.07-61.56,56.82-137.07,96.46-217.76,118.37-88.46,24-180.34,24.31-271,15.47-76.27-7.43-152.46-22.28-229.29-22.34-65.41,0-130,14.83-179.13,60.34-61.3,56.75-85.39,140.51-89.42,221.69-.88,17.6-.83,35.23-.15,52.83.21,5.61,9,5.64,8.75,0Z" fill="#5d38a8"/><path d="M382.41,1532.84c-3.09-80.14,7.71-165.2,55.26-232.17c21.17-29.8,49.15-54.67,82.19-70.5c29.57-14.17,62.24-20.59,94.8-22.63c73.66-4.61,147.6,9.13,220.5,17.6c85.14,9.9,171.22,14.59,256.13,0c84.28-14.49,166.34-47.47,235-98.89c54.45-40.82,98.6-92.5,137.66-147.86c38.84-55,73.34-113,113.8-167c44.56-59.36,96.94-112.41,159.49-152.81c164.63-106.34,368.88-122.19,557.6-86.56q26.72,5.06,53.16,11.33c5.48,1.29,7.82-7.15,2.33-8.44-183.89-43.3-381.22-43.25-554.14,40.56C1725,650,1662.15,698.42,1610,757.74c-45.34,51.56-82.23,109.53-120,166.67-38.23,57.83-78.41,114.83-129.6,162.07-61.57,56.82-137.07,96.45-217.76,118.37-88.46,24-180.34,24.31-271,15.47-76.27-7.44-152.46-22.28-229.29-22.34-65.41-.06-130,14.83-179.13,60.33-61.31,56.76-85.39,140.52-89.42,221.7-.88,17.6-.83,35.22-.15,52.83.21,5.61,9,5.64,8.75,0Z" fill="#740090"/><path d="M393.65,1548.53c-3.09-80.14,7.7-165.2,55.26-232.16c21.17-29.8,49.15-54.67,82.19-70.51c29.57-14.17,62.24-20.58,94.8-22.62c73.66-4.62,147.6,9.13,220.5,17.6c85.14,9.89,171.22,14.59,256.13,0c84.28-14.49,166.34-47.47,235-98.9c54.45-40.81,98.6-92.5,137.66-147.86c38.84-55,73.34-113.05,113.8-167c44.56-59.35,96.94-112.4,159.49-152.8C1913.06,568,2117.31,552.11,2306,587.75c17.8,3.36,35.52,7.17,53.16,11.32c5.48,1.29,7.82-7.14,2.33-8.43-183.89-43.31-381.22-43.26-554.15,40.56-71.13,34.48-134,82.92-186.15,142.24C1575.88,825,1539,883,1501.22,940.1c-38.22,57.83-78.4,114.84-129.59,162.08-61.57,56.81-137.07,96.45-217.76,118.37-88.46,24-180.34,24.3-271,15.47-76.27-7.44-152.46-22.29-229.29-22.35-65.41-.05-130,14.84-179.13,60.34-61.31,56.75-85.39,140.51-89.43,221.69-.87,17.6-.82,35.23-.14,52.83.21,5.62,9,5.64,8.75,0Z" fill="#b00888"/><path d="M404.89,1564.23c-3.09-80.14,7.7-165.2,55.26-232.17c21.17-29.8,49.15-54.67,82.19-70.5c29.57-14.17,62.24-20.59,94.8-22.63c73.66-4.61,147.6,9.13,220.5,17.61c85.14,9.89,171.21,14.58,256.13,0c84.27-14.49,166.34-47.46,235-98.89c54.45-40.82,98.6-92.5,137.66-147.86c38.84-55,73.34-113,113.8-167c44.55-59.36,96.94-112.4,159.49-152.81c164.62-106.34,368.88-122.19,557.6-86.55c17.8,3.36,35.52,7.17,53.16,11.32c5.48,1.29,7.81-7.15,2.33-8.44-183.89-43.3-381.22-43.25-554.15,40.57-71.13,34.47-134,82.92-186.15,142.23-45.35,51.56-82.23,109.54-120,166.67-38.22,57.83-78.4,114.83-129.59,162.07-61.57,56.82-137.07,96.46-217.76,118.37-88.46,24-180.34,24.31-271,15.47-76.28-7.43-152.46-22.28-229.29-22.34-65.41,0-130,14.83-179.13,60.34-61.31,56.75-85.39,140.51-89.43,221.69-.87,17.6-.82,35.23-.15,52.83.22,5.61,9,5.64,8.76,0Z" fill="#d61488"/><path d="M416.12,1579.93c-3.08-80.15,7.71-165.2,55.27-232.17c21.16-29.8,49.15-54.67,82.19-70.5c29.57-14.17,62.24-20.59,94.79-22.63c73.66-4.61,147.6,9.13,220.51,17.6c85.14,9.89,171.21,14.59,256.13,0c84.27-14.49,166.34-47.47,234.94-98.89c54.46-40.82,98.61-92.5,137.67-147.86c38.83-55,73.34-113.05,113.8-167c44.55-59.36,96.94-112.41,159.49-152.81c164.62-106.34,368.88-122.19,557.6-86.56q26.7,5.05,53.16,11.33c5.48,1.29,7.81-7.15,2.32-8.44-183.88-43.31-381.21-43.25-554.14,40.56-71.13,34.48-134,82.92-186.15,142.24-45.35,51.56-82.23,109.53-120,166.67-38.22,57.83-78.4,114.83-129.59,162.07-61.57,56.82-137.07,96.45-217.76,118.37-88.47,24-180.34,24.31-271,15.47-76.28-7.44-152.46-22.28-229.29-22.35-65.41,0-130,14.84-179.13,60.34-61.31,56.76-85.4,140.52-89.43,221.7-.87,17.6-.82,35.22-.15,52.83.22,5.61,9,5.64,8.75,0Z" fill="#ff004a"/><path d="M427.36,1595.62c-3.08-80.14,7.71-165.2,55.27-232.16c21.16-29.8,49.14-54.67,82.19-70.51c29.56-14.17,62.24-20.59,94.79-22.62c73.66-4.62,147.6,9.13,220.51,17.6c85.14,9.89,171.21,14.59,256.12,0c84.28-14.49,166.35-47.47,235-98.9c54.45-40.81,98.61-92.5,137.67-147.86c38.83-55,73.33-113.05,113.8-167c44.55-59.36,96.94-112.4,159.49-152.81c164.57-106.3,368.8-122.16,557.54-86.52c17.81,3.36,35.53,7.17,53.17,11.32c5.47,1.29,7.81-7.14,2.32-8.44-183.88-43.3-381.21-43.25-554.14,40.57-71.13,34.48-134,82.92-186.15,142.24-45.35,51.56-82.23,109.53-120,166.66-38.22,57.83-78.41,114.84-129.59,162.08-61.57,56.81-137.07,96.45-217.76,118.37-88.47,24-180.34,24.3-271,15.47-76.28-7.44-152.46-22.29-229.29-22.35-65.41,0-130,14.84-179.13,60.34-61.31,56.75-85.4,140.51-89.43,221.69-.87,17.6-.83,35.23-.15,52.83.22,5.62,9,5.64,8.75,0Z" fill="#ff4a45"/><path d="M438.6,1611.32c-3.08-80.14,7.71-165.2,55.27-232.17c21.16-29.8,49.14-54.67,82.19-70.5c29.56-14.17,62.24-20.59,94.79-22.63c73.66-4.61,147.6,9.13,220.51,17.61c85.13,9.89,171.21,14.58,256.12,0c84.28-14.49,166.35-47.46,235-98.89c54.45-40.82,98.61-92.5,137.67-147.86c38.83-55,73.33-113,113.8-167c44.55-59.36,96.94-112.4,159.49-152.81C1958,630.75,2162.26,614.9,2351,650.54c17.81,3.36,35.53,7.17,53.17,11.32c5.47,1.29,7.81-7.15,2.32-8.44-183.89-43.3-381.21-43.25-554.14,40.56-71.13,34.48-134,82.93-186.15,142.24-45.35,51.56-82.24,109.54-120,166.67-38.22,57.83-78.41,114.83-129.6,162.07-61.56,56.82-137.06,96.45-217.75,118.37-88.47,24-180.34,24.31-271,15.47-76.28-7.43-152.46-22.28-229.29-22.34-65.42,0-130,14.83-179.13,60.34-61.31,56.75-85.4,140.51-89.43,221.69-.87,17.6-.83,35.22-.15,52.83.22,5.61,9,5.64,8.75,0Z" fill="#ff9620"/><path d="M449.84,1627c-3.09-80.15,7.71-165.21,55.27-232.17c21.16-29.8,49.14-54.67,82.19-70.5c29.56-14.17,62.24-20.59,94.79-22.63c73.66-4.61,147.6,9.13,220.5,17.6c85.14,9.89,171.22,14.59,256.13,0c84.28-14.49,166.35-47.47,235-98.89c54.45-40.82,98.61-92.5,137.67-147.86c38.83-55,73.33-113,113.8-167c44.55-59.36,96.93-112.41,159.49-152.81c164.62-106.34,368.87-122.19,557.59-86.56q26.72,5,53.17,11.33c5.47,1.29,7.81-7.15,2.32-8.44-183.89-43.31-381.21-43.25-554.14,40.56-71.14,34.48-134,82.92-186.15,142.24-45.35,51.56-82.24,109.53-120,166.67-38.23,57.83-78.41,114.83-129.6,162.07-61.56,56.81-137.06,96.45-217.76,118.37-88.46,24-180.33,24.31-271,15.47-76.28-7.44-152.46-22.29-229.29-22.35-65.42-.05-130,14.84-179.13,60.34-61.31,56.76-85.4,140.52-89.43,221.7-.88,17.6-.83,35.22-.15,52.83.22,5.61,9,5.64,8.75,0Z" fill="#ffb64a"/><path d="M461.08,1642.71c-3.09-80.14,7.71-165.2,55.27-232.16c21.16-29.8,49.14-54.67,82.18-70.51c29.57-14.17,62.25-20.59,94.8-22.62c73.66-4.62,147.6,9.13,220.5,17.6c85.14,9.89,171.22,14.59,256.13,0c84.28-14.49,166.35-47.47,235-98.9c54.45-40.81,98.6-92.5,137.66-147.86c38.84-55,73.34-113,113.8-167c44.56-59.36,96.94-112.4,159.5-152.81c164.62-106.33,368.87-122.19,557.59-86.55c17.81,3.36,35.53,7.17,53.16,11.32c5.48,1.29,7.82-7.14,2.33-8.44-183.89-43.3-381.21-43.25-554.14,40.57-71.14,34.48-134,82.92-186.15,142.24-45.35,51.56-82.24,109.53-120,166.66-38.23,57.83-78.41,114.84-129.6,162.08-61.56,56.81-137.06,96.45-217.76,118.37-88.46,24-180.34,24.3-271,15.47-76.27-7.44-152.46-22.29-229.29-22.35-65.41,0-130,14.83-179.12,60.34-61.31,56.75-85.4,140.51-89.43,221.69-.88,17.6-.83,35.23-.15,52.83.22,5.62,9,5.64,8.75,0Z" fill="#ffd644"/></g></g></g></g></svg>
