<svg xmlns="http://www.w3.org/2000/svg" viewBox="0 0 564.91 383.01"><defs><style>.cls-1,.cls-8{fill:#232323;}.cls-2{fill:#259aa1;}.cls-3{fill:#d61587;}.cls-4{fill:#2170a2;}.cls-5{fill:#ed1c4f;}.cls-6{fill:#fcb54a;}.cls-7{fill:#5ac09d;}.cls-8{stroke:#c0e0b3;stroke-miterlimit:10;stroke-width:10px;}.cls-9{fill:#c0e0b3;}</style></defs><g id="Layer_4" data-name="Layer 4"><g id="Game_Dev" data-name="Game Dev"><path class="cls-1" d="M491.23,44.93v229a35.47,35.47,0,0,1-35.46,35.46H35.46A35.46,35.46,0,0,1,0,273.93v-229Z"/><path class="cls-2" d="M491.23,35.46v9.47H0V35.46A35.45,35.45,0,0,1,35.46,0H455.77A35.46,35.46,0,0,1,491.23,35.46Z"/><circle class="cls-1" cx="457.27" cy="22.46" r="8.43"/><circle class="cls-1" cx="432.76" cy="22.46" r="8.43"/><circle class="cls-1" cx="408.25" cy="22.46" r="8.43"/><path class="cls-3" d="M44.42,87.7H82.21c7.72,0,7.73-12,0-12H44.42c-7.72,0-7.73,12,0,12Z"/><path class="cls-4" d="M101.61,87.7h79.15c7.72,0,7.74-12,0-12H101.61c-7.72,0-7.73,12,0,12Z"/><path class="cls-5" d="M57.7,108.12H201.19c7.72,0,7.73-12,0-12H57.7c-7.72,0-7.74,12,0,12Z"/><path class="cls-6" d="M82.21,128.55H191c7.73,0,7.74-12,0-12H82.21c-7.72,0-7.74,12,0,12Z"/><path class="cls-7" d="M57.7,149H166.46c7.73,0,7.74-12,0-12H57.7c-7.72,0-7.74,12,0,12Z"/><path class="cls-6" d="M82.21,169.4H191c7.73,0,7.74-12,0-12H82.21c-7.72,0-7.74,12,0,12Z"/><path class="cls-3" d="M44.42,196.46H82.21c7.72,0,7.73-12,0-12H44.42c-7.72,0-7.73,12,0,12Z"/><path class="cls-4" d="M101.61,196.46h59.24c7.72,0,7.73-12,0-12H101.61c-7.72,0-7.73,12,0,12Z"/><path class="cls-5" d="M57.7,216.89H259.4c7.72,0,7.73-12,0-12H57.7c-7.72,0-7.74,12,0,12Z"/><path class="cls-6" d="M72,237.32H211.91c7.72,0,7.73-12,0-12H72c-7.73,0-7.74,12,0,12Z"/><path class="cls-6" d="M82.21,260.29H191c7.73,0,7.74-12,0-12H82.21c-7.72,0-7.74,12,0,12Z"/><path class="cls-8" d="M559.91,236.62V314c0,54.77-64.38,84.18-105.78,48.33l-12.45-10.79a64,64,0,0,0-41.85-15.6h0A64,64,0,0,0,358,351.49l-12.45,10.79c-41.4,35.85-105.78,6.44-105.78-48.33V236.62a63.93,63.93,0,0,1,63.93-63.93H496A63.93,63.93,0,0,1,559.91,236.62Z"/><rect class="cls-9" x="281.36" y="229.44" width="70.98" height="22.64" rx="11.32" transform="translate(76.08 557.61) rotate(-90)"/><rect class="cls-9" x="281.36" y="229.44" width="70.98" height="22.64" rx="11.32"/><circle class="cls-9" cx="491.23" cy="216.07" r="11.73"/><circle class="cls-9" cx="491.23" cy="265.45" r="11.73"/><circle class="cls-9" cx="361.02" cy="295.66" r="19.4"/><circle class="cls-9" cx="438.63" cy="295.66" r="19.4"/><circle class="cls-9" cx="515.92" cy="240.76" r="11.73"/><circle class="cls-9" cx="466.54" cy="240.76" r="11.73"/></g></g></svg>