<svg xmlns="http://www.w3.org/2000/svg" viewBox="0 0 569.04 387.2"><defs><style>.cls-1{fill:#232323;}.cls-2{fill:#259aa1;}.cls-3{fill:#d61587;}.cls-4{fill:#2170a2;}.cls-5{fill:#ed1c4f;}.cls-6{fill:#fcb54a;}.cls-7{fill:#5ac09d;}.cls-8{fill:#fff3d5;}.cls-9{fill:#c0e0b3;}.cls-10{fill:none;stroke:#c0e0b3;stroke-miterlimit:10;stroke-width:10px;}.cls-11{fill:#fff;}</style></defs><g id="Layer_4" data-name="Layer 4"><g id="Web"><g id="Window"><path class="cls-1" d="M491.23,44.93v229a35.47,35.47,0,0,1-35.46,35.46H35.46A35.46,35.46,0,0,1,0,273.93v-229Z"/><path class="cls-2" d="M491.23,35.46v9.47H0V35.46A35.45,35.45,0,0,1,35.46,0H455.77A35.46,35.46,0,0,1,491.23,35.46Z"/><circle class="cls-1" cx="457.27" cy="22.46" r="8.43"/><circle class="cls-1" cx="432.76" cy="22.46" r="8.43"/><circle class="cls-1" cx="408.25" cy="22.46" r="8.43"/><path class="cls-3" d="M44.42,87.7H82.21c7.72,0,7.73-12,0-12H44.42c-7.72,0-7.73,12,0,12Z"/><path class="cls-4" d="M101.61,87.7h79.15c7.72,0,7.74-12,0-12H101.61c-7.72,0-7.73,12,0,12Z"/><path class="cls-5" d="M57.7,108.12H201.19c7.72,0,7.73-12,0-12H57.7c-7.72,0-7.74,12,0,12Z"/><path class="cls-6" d="M82.21,128.55H191c7.73,0,7.74-12,0-12H82.21c-7.72,0-7.74,12,0,12Z"/><path class="cls-7" d="M57.7,149H166.46c7.73,0,7.74-12,0-12H57.7c-7.72,0-7.74,12,0,12Z"/><path class="cls-6" d="M82.21,169.4H191c7.73,0,7.74-12,0-12H82.21c-7.72,0-7.74,12,0,12Z"/><path class="cls-3" d="M44.42,196.46H82.21c7.72,0,7.73-12,0-12H44.42c-7.72,0-7.73,12,0,12Z"/><path class="cls-4" d="M101.61,196.46h59.24c7.72,0,7.73-12,0-12H101.61c-7.72,0-7.73,12,0,12Z"/><path class="cls-5" d="M57.7,216.89H259.4c7.72,0,7.73-12,0-12H57.7c-7.72,0-7.74,12,0,12Z"/><path class="cls-6" d="M72,237.32H211.91c7.72,0,7.73-12,0-12H72c-7.73,0-7.74,12,0,12Z"/><path class="cls-6" d="M82.21,260.29H191c7.73,0,7.74-12,0-12H82.21c-7.72,0-7.74,12,0,12Z"/></g><g id="Window-2" data-name="Window"><path class="cls-1" d="M564,117.74v229a35.47,35.47,0,0,1-35.46,35.46H291.18a35.46,35.46,0,0,1-35.46-35.46v-229Z"/><rect class="cls-8" x="255.72" y="115.4" width="308.32" height="48"/><path class="cls-9" d="M564,108.27v9.47H255.72v-9.47a35.45,35.45,0,0,1,35.46-35.46h237.4A35.46,35.46,0,0,1,564,108.27Z"/><path class="cls-10" d="M564,108.27V346.74a35.47,35.47,0,0,1-35.46,35.46H291.18a35.46,35.46,0,0,1-35.46-35.46V108.27a35.45,35.45,0,0,1,35.46-35.46h237.4A35.46,35.46,0,0,1,564,108.27Z"/><circle class="cls-1" cx="530.08" cy="95.27" r="8.43"/><circle class="cls-1" cx="505.57" cy="95.27" r="8.43"/><circle class="cls-1" cx="481.06" cy="95.27" r="8.43"/><path class="cls-1" d="M536.94,136.18H509c-5.79,0-5.8,9,0,9h28c5.79,0,5.8-9,0-9Z"/><path class="cls-1" d="M492.51,136.18h-28c-5.79,0-5.8,9,0,9h28c5.79,0,5.8-9,0-9Z"/><path class="cls-1" d="M449.23,136.18h-28c-5.79,0-5.8,9,0,9h28c5.8,0,5.8-9,0-9Z"/><path class="cls-1" d="M407,136.18H379c-5.79,0-5.8,9,0,9h28c5.79,0,5.8-9,0-9Z"/></g><circle class="cls-1" cx="293.1" cy="140.68" r="12.26"/><path class="cls-5" d="M299.23,261.74H442.72c9.42,0,18.44-8.28,18-18s-7.91-18-18-18H299.23c-9.41,0-18.43,8.28-18,18s7.91,18,18,18Z"/><path class="cls-5" d="M293.1,215.27H401.87c7.72,0,7.73-12,0-12H293.1c-7.72,0-7.73,12,0,12Z"/><path class="cls-5" d="M293.1,284.21H401.87c7.72,0,7.73-12,0-12H293.1c-7.72,0-7.73,12,0,12Z"/><path class="cls-11" d="M382.31,369.57h55.14c7.72,0,7.73-12,0-12H382.31c-7.72,0-7.74,12,0,12Z"/></g></g></svg>