<svg xmlns="http://www.w3.org/2000/svg" viewBox="0 0 585.26 292.62"><defs><style>.cls-1{fill:"currentColor";}</style></defs><g id="Layer_2" data-name="Layer 2"><g id="Layer_29" data-name="Layer 29"><path class="cls-1" d="M13.63,278.56h0a46.62,46.62,0,0,1,0-65.88l198.62-199a46.45,46.45,0,0,1,65.75,0h0a46.64,46.64,0,0,1,0,65.89l-198.62,199A46.45,46.45,0,0,1,13.63,278.56Z"/><path class="cls-1" d="M440.08,145.4h0a46.62,46.62,0,0,1,0-65.88l65.75-65.88a46.43,46.43,0,0,1,65.75,0h0a46.62,46.62,0,0,1,0,65.88L505.83,145.4A46.43,46.43,0,0,1,440.08,145.4Z"/><rect class="cls-1" x="314.12" y="0.01" width="92.98" height="292.48" rx="46.49"/><ellipse class="cls-1" cx="245.36" cy="245.91" rx="46.49" ry="46.59"/><ellipse class="cls-1" cx="538.77" cy="246.03" rx="46.49" ry="46.59"/></g></g></svg>